<svg width="35" height="32" viewBox="0 0 35 32" fill="none" xmlns="http://www.w3.org/2000/svg">
<path d="M24.957 0.839844C30.7661 0.839844 34.1952 4.18232 34.1953 9.9043H27.0684V9.96289C23.7609 9.96298 21.0802 12.5771 21.0801 15.8018C21.0801 19.0265 23.7609 21.6405 27.0684 21.6406H34.1953V22.166C34.1953 27.8152 30.7663 31.1582 24.957 31.1582H9.74609C3.93687 31.1582 0.507812 27.8152 0.507812 22.166V9.83203C0.507812 4.18285 3.93687 0.839844 9.74609 0.839844H24.957ZM32.9336 12.4102C33.6282 12.4102 34.1914 12.9595 34.1914 13.6367V17.8984C34.1833 18.5723 33.6248 19.1171 32.9336 19.125H27.1992C25.525 19.1468 24.0606 18.0293 23.6807 16.4395C23.4905 15.4524 23.7576 14.4333 24.4102 13.6562C25.0627 12.8793 26.0345 12.4232 27.0645 12.4102H32.9336ZM8.49121 7.39062C7.78589 7.39058 7.21133 7.94422 7.20312 8.63184C7.20332 9.32736 7.77782 9.89337 8.49121 9.90137H17.998C18.709 9.90137 19.2859 9.33959 19.2861 8.64648C19.2861 7.95316 18.7092 7.39062 17.998 7.39062H8.49121Z" fill="#43DCA6"/>
</svg>
