<svg width="31" height="36" viewBox="0 0 31 36" fill="none" xmlns="http://www.w3.org/2000/svg">
<path d="M14.2012 0.551637C14.8823 0.310221 15.6418 0.30524 16.335 0.539918L27.8506 4.4032C29.1397 4.83364 30.0116 6.01854 30.0186 7.34558L30.0918 18.8671C30.1145 22.3598 28.8416 25.7472 26.5098 28.4012C25.4373 29.6194 24.0621 30.6657 22.3067 31.6014L16.1172 34.91C15.9234 35.0121 15.71 35.0655 15.4952 35.0673C15.2803 35.069 15.0652 35.0173 14.8731 34.9169L8.62504 31.6845C6.85058 30.7641 5.46378 29.7332 4.3809 28.5321C2.01065 25.9052 0.693648 22.533 0.670941 19.035L0.597699 7.52234C0.590712 6.19362 1.44653 5.00106 2.72856 4.55359L14.2012 0.551637ZM23.1885 11.9432C22.5577 11.3374 21.5422 11.3418 20.92 11.9559L13.7637 19.0096L10.8331 16.1932C10.2022 15.5873 9.18895 15.5936 8.5645 16.2079C7.94216 16.8224 7.94834 17.8097 8.57914 18.4159L12.6495 22.3329C12.9659 22.6368 13.3766 22.7872 13.7872 22.7831C14.1976 22.7809 14.6058 22.6263 14.918 22.3182L23.2012 14.1522C23.8236 13.5377 23.8173 12.5495 23.1885 11.9432Z" fill="#43DCA6"/>
</svg>
