<svg width="33" height="32" viewBox="0 0 33 32" fill="none" xmlns="http://www.w3.org/2000/svg">
<path d="M26.0452 19.7506C25.6249 20.1568 25.4318 20.7443 25.5276 21.3204L26.9701 29.2829C27.0918 29.9578 26.8062 30.6408 26.2399 31.0308C25.685 31.4354 24.9467 31.484 24.3414 31.1603L17.1548 27.4218C16.905 27.2891 16.6275 27.2179 16.3435 27.2098H15.9038C15.7513 27.2324 15.602 27.281 15.4657 27.3554L8.27746 31.1117C7.92211 31.2897 7.5197 31.3529 7.1254 31.2897C6.1648 31.1085 5.52387 30.1957 5.68126 29.2328L7.1254 21.2702C7.22113 20.6892 7.02804 20.0985 6.60778 19.6858L0.748486 14.0214C0.258453 13.5472 0.0880776 12.8351 0.312 12.1926C0.529431 11.5518 1.08437 11.084 1.75451 10.9788L9.81895 9.81198C10.4323 9.74886 10.971 9.37663 11.2469 8.82637L14.8004 1.55976C14.8848 1.39792 14.9935 1.24903 15.1249 1.1228L15.271 1.00951C15.3472 0.925353 15.4349 0.855762 15.5322 0.799118L15.7091 0.734382L15.9849 0.621094H16.668C17.2782 0.684211 17.8152 1.04835 18.096 1.59213L21.6966 8.82637C21.9562 9.35559 22.4608 9.72297 23.0433 9.81198L31.1078 10.9788C31.7893 11.0759 32.3588 11.5453 32.5844 12.1926C32.7969 12.8416 32.6136 13.5537 32.1138 14.0214L26.0452 19.7506Z" fill="#43DCA6"/>
</svg>
