<svg width="32" height="32" viewBox="0 0 32 32" fill="none" xmlns="http://www.w3.org/2000/svg">
<path d="M30.8903 1.58853C30.1193 0.79715 28.9782 0.502321 27.9142 0.812668L3.10381 8.02823C1.98124 8.34013 1.18558 9.23548 0.971249 10.3729C0.752288 11.5305 1.51711 13 2.51631 13.6145L10.274 18.383C11.0697 18.8717 12.0966 18.7492 12.755 18.085L21.6384 9.14548C22.0856 8.67996 22.8257 8.67996 23.2729 9.14548C23.7201 9.59548 23.7201 10.3248 23.2729 10.7903L14.3741 19.7314C13.7142 20.394 13.5908 21.4259 14.0765 22.2266L18.8166 30.0629C19.3717 30.9939 20.3277 31.5215 21.3762 31.5215C21.4996 31.5215 21.6384 31.5215 21.7617 31.506C22.9645 31.3508 23.9205 30.5284 24.2752 29.3646L31.6304 4.58338C31.9542 3.5282 31.6612 2.37992 30.8903 1.58853Z" fill="#43DCA6"/>
</svg>
