<svg width="19" height="18" viewBox="0 0 19 18" fill="none" xmlns="http://www.w3.org/2000/svg">
<path fill-rule="evenodd" clip-rule="evenodd" d="M16 6H13V4H16C17.6569 4 19 5.34315 19 7V15C19 16.6569 17.6569 18 16 18H8C6.34315 18 5 16.6569 5 15V13H7V15C7 15.5523 7.44772 16 8 16H16C16.5523 16 17 15.5523 17 15V7C17 6.44772 16.5523 6 16 6Z" fill="#EEEEEE"/>
<path fill-rule="evenodd" clip-rule="evenodd" d="M0 3C0 1.34315 1.34315 0 3 0H11C12.6569 0 14 1.34315 14 3V11C14 12.6569 12.6569 14 11 14H3C1.34315 14 0 12.6569 0 11V3ZM3 2C2.44772 2 2 2.44772 2 3V11C2 11.5523 2.44772 12 3 12H11C11.5523 12 12 11.5523 12 11V3C12 2.44772 11.5523 2 11 2H3Z" fill="#EEEEEE"/>
</svg>
