<svg width="46" height="47" viewBox="0 0 46 47" fill="none" xmlns="http://www.w3.org/2000/svg">
<path d="M0 22.64C0 12.3018 2.45087e-06 7.12746 3.21088 3.92083C6.42175 0.714209 11.5919 0.709961 21.93 0.709961H23.7575C34.0956 0.709961 39.27 0.709959 42.4766 3.92083C45.6832 7.13171 45.6875 12.3018 45.6875 22.64V24.4675C45.6875 34.8056 45.6875 39.98 42.4766 43.1866C39.2657 46.3932 34.0956 46.3974 23.7575 46.3974H21.93C11.5919 46.3974 6.4175 46.3975 3.21088 43.1866C0.00425226 39.9757 0 34.8056 0 24.4675V22.64Z" fill="#FFBB3C"/>
<path d="M28.9153 15.3066C28.6487 15.2399 28.254 15.1629 28.0438 15.1321C27.8336 15.1065 27.3465 15.0962 26.9671 15.1065C26.5416 15.1167 26.0751 15.1629 25.7624 15.2296C25.4804 15.2861 25.0754 15.3938 24.8652 15.4708C24.655 15.5426 24.3064 15.6966 24.0962 15.7992C23.886 15.907 23.5527 16.1071 23.3528 16.2508C23.1528 16.3893 22.8606 16.6254 22.6914 16.7793C22.5274 16.9332 22.2505 17.2308 22.0813 17.4412C21.9122 17.6516 21.6661 18.0057 21.5379 18.2263C21.4097 18.447 21.2816 18.6163 21.2508 18.6009C21.22 18.5907 21.0509 18.5137 20.8663 18.4418C20.6817 18.3649 20.3126 18.2469 20.046 18.1801C19.7794 18.1083 19.3283 18.0416 19.0463 18.0211C18.7438 18.0057 18.3439 18.0159 18.0722 18.057C17.821 18.0878 17.416 18.175 17.175 18.2469C16.9341 18.3136 16.5444 18.4675 16.3035 18.5855C16.0625 18.7035 15.6831 18.9345 15.4576 19.1038C15.232 19.2731 14.8987 19.5605 14.7193 19.7452C14.5399 19.9299 14.263 20.2789 14.1041 20.52C13.9452 20.7612 13.735 21.1409 13.6427 21.3667C13.5504 21.5925 13.4222 21.9979 13.3658 22.2647C13.3043 22.5315 13.2582 22.7573 13.2531 22.7624C13.2531 22.7727 13.0326 22.8035 12.766 22.8343C12.4994 22.8651 12.0688 22.9574 11.8176 23.0395C11.5663 23.1216 11.1818 23.2858 10.9716 23.4141C10.7614 23.5373 10.4385 23.7784 10.2539 23.9427C10.0693 24.112 9.79249 24.4301 9.63869 24.6559C9.49001 24.8766 9.29519 25.2101 9.21317 25.3948C9.13114 25.5796 9.0081 25.9387 8.94658 26.1902C8.87993 26.4416 8.81328 26.847 8.79277 27.0882C8.77227 27.3499 8.78252 27.7296 8.81841 28.0375C8.85429 28.3197 8.93632 28.7353 9.00809 28.9611C9.07987 29.1869 9.20804 29.5102 9.29519 29.6795C9.37722 29.8488 9.53103 30.1157 9.63869 30.2696C9.74122 30.4235 10.0129 30.7212 10.2334 30.9264C10.541 31.2138 10.7614 31.3626 11.1511 31.5524C11.4331 31.691 11.8124 31.8449 11.997 31.8962C12.3149 31.9835 12.8532 31.9886 22.635 32.004C30.2842 32.0143 33.0372 32.004 33.3243 31.9578C33.5345 31.927 33.8934 31.8347 34.119 31.7526C34.3446 31.6653 34.6317 31.5422 34.7598 31.4652C34.888 31.3934 35.1392 31.2138 35.3186 31.0701C35.4981 30.9264 35.7749 30.6493 35.9287 30.4492C36.0774 30.2491 36.3081 29.8796 36.4312 29.6282C36.5542 29.3767 36.7029 28.9816 36.7644 28.7559C36.8208 28.5249 36.8823 28.0888 36.8977 27.7552C36.9182 27.3293 36.9028 27.0317 36.8413 26.6879C36.7952 26.4314 36.6926 26.026 36.6055 25.7951C36.5234 25.559 36.3337 25.1742 36.1851 24.933C36.0364 24.6918 35.7544 24.3326 35.5545 24.1325C35.3597 23.9324 35.0213 23.6553 34.8111 23.5168C34.6009 23.3782 34.2677 23.1986 34.0677 23.1165C33.8678 23.0344 33.6935 22.9523 33.673 22.9369C33.6524 22.9215 33.6576 22.6188 33.6883 22.2647C33.7293 21.808 33.7293 21.4437 33.6883 21.0075C33.6576 20.6689 33.5755 20.1557 33.5038 19.8632C33.432 19.5759 33.2884 19.1397 33.1808 18.8934C33.0782 18.642 32.8834 18.2674 32.7501 18.057C32.6168 17.8466 32.3759 17.5131 32.2067 17.313C32.0375 17.1128 31.7197 16.8049 31.4992 16.6202C31.2788 16.4355 30.925 16.1841 30.7097 16.0558C30.4995 15.9275 30.115 15.7325 29.8638 15.6299C29.6126 15.5221 29.1819 15.3784 28.9153 15.3066Z" fill="white"/>
</svg>
