<svg width="46" height="47" viewBox="0 0 46 47" fill="none" xmlns="http://www.w3.org/2000/svg">
<path d="M0 22.6409C0 12.3028 2.45087e-06 7.12843 3.21088 3.92181C6.42175 0.715185 11.5919 0.710938 21.93 0.710938H23.7575C34.0956 0.710938 39.27 0.710936 42.4766 3.92181C45.6832 7.13268 45.6875 12.3028 45.6875 22.6409V24.4684C45.6875 34.8066 45.6875 39.9809 42.4766 43.1876C39.2657 46.3942 34.0956 46.3984 23.7575 46.3984H21.93C11.5919 46.3984 6.4175 46.3984 3.21088 43.1876C0.00425226 39.9767 0 34.8066 0 24.4684V22.6409Z" fill="#1A2F63"/>
<path fill-rule="evenodd" clip-rule="evenodd" d="M22.487 10.7988L22.212 11.1455C22.6305 11.7075 22.7859 11.8629 22.8338 11.8629C22.8936 11.8629 23.037 11.6955 23.1686 11.5042L23.4077 11.1455C23.037 10.5836 22.8936 10.4281 22.8338 10.4401C22.7859 10.4401 22.6305 10.5955 22.4751 10.7988H22.487ZM21.4468 12.2216C21.3033 12.2814 21.1359 12.4369 21.0522 12.5684C20.9685 12.7119 20.9087 12.9271 20.9087 13.0586C20.9087 13.1901 21.0642 13.5967 21.2674 13.9554C21.6261 14.613 21.6261 14.613 21.4109 15.0434C21.3033 15.2826 21.1 15.5456 20.9685 15.6293C20.837 15.7011 20.6218 15.8087 20.4902 15.8445C20.275 15.9163 20.2511 15.8685 20.2511 15.2945C20.2511 14.7206 20.2272 14.6728 19.9522 14.6369C19.7609 14.613 19.5576 14.7086 19.3783 14.876L19.1152 15.151C18.6967 14.7326 18.4576 14.613 18.3022 14.613C18.1467 14.613 17.9793 14.7206 17.9076 14.876C17.8 15.0913 17.8119 15.2467 17.9913 15.6293L18.2185 16.1076C19.7968 16.1674 20.4305 16.1554 20.6337 16.1195C20.8489 16.0717 21.2077 15.8924 21.4109 15.713C21.6261 15.5217 21.8892 15.1989 21.9848 14.9837C22.1522 14.6249 22.1881 14.601 22.8457 14.613C23.5273 14.613 23.5392 14.613 23.7784 15.0913C23.9099 15.3543 24.1968 15.6891 24.4001 15.8326C24.7349 16.0717 24.986 16.1195 26.1099 16.1554L27.4252 16.1913C27.748 15.5217 27.8437 15.2347 27.8437 15.1152C27.8437 15.0076 27.7839 14.8402 27.7002 14.7565C27.6165 14.6728 27.473 14.613 27.3893 14.613C27.3176 14.613 27.0784 14.7206 26.8871 14.8521C26.5284 15.0913 26.5284 15.0913 26.2534 14.8521C26.1099 14.7206 25.9067 14.613 25.799 14.613C25.7034 14.613 25.5599 14.6847 25.4762 14.7565C25.3925 14.8402 25.3327 15.0315 25.3327 15.175C25.3327 15.3304 25.3806 15.5576 25.4523 15.6891C25.532 15.8485 25.532 15.9282 25.4523 15.9282C25.3806 15.9282 25.1653 15.8445 24.974 15.7489C24.7708 15.6532 24.5077 15.4261 24.3762 15.2347C24.2327 15.0554 24.1251 14.8163 24.1371 14.6967C24.1371 14.5891 24.2686 14.2184 24.436 13.8956C24.6034 13.5608 24.7349 13.1543 24.7349 12.963C24.7469 12.7836 24.6512 12.5564 24.5316 12.4488C24.4121 12.3412 24.2088 12.2216 24.0773 12.1738C23.886 12.1021 23.7305 12.2097 23.336 12.664L22.8338 13.238C22.0805 12.3532 21.8294 12.1021 21.7696 12.114C21.7218 12.114 21.5783 12.1619 21.4468 12.2216ZM18.8761 13.2021C18.7804 13.2858 18.7206 13.4054 18.7326 13.4771C18.7326 13.5369 18.8283 13.6804 18.9359 13.776C19.1033 13.9315 19.1511 13.9315 19.3304 13.7401C19.4739 13.5847 19.4978 13.4771 19.4141 13.3336C19.3424 13.226 19.2348 13.1184 19.163 13.0945C19.1033 13.0706 18.9717 13.1184 18.8761 13.2021ZM26.2893 13.2977C26.1936 13.4771 26.2175 13.5967 26.373 13.788L26.5882 14.0271C26.9828 13.4891 26.9828 13.4651 26.7915 13.2619C26.6838 13.1423 26.5523 13.0467 26.5045 13.0586C26.4567 13.0586 26.361 13.1662 26.2893 13.2977ZM15.8749 13.9315C15.5521 14.2543 15.1934 14.4934 14.9304 14.5413C14.7032 14.5891 14.4162 14.6489 14.2966 14.6847C14.1771 14.7086 14.0934 14.8402 14.0934 15.0076C14.0934 15.151 14.2129 15.3902 14.3684 15.5456C14.5358 15.725 14.6314 15.9761 14.6314 16.2391C14.6314 16.6337 14.6434 16.6456 15.0141 16.5859C15.3488 16.538 15.4086 16.5619 15.4086 16.7652C15.4086 16.8967 15.4804 16.9924 15.5521 16.9685C15.6358 16.9446 15.7195 16.8011 15.7434 16.6337C15.7673 16.4543 15.6238 16.1554 15.3488 15.8087C15.1217 15.5097 14.9304 15.1989 14.9304 15.1271C14.9304 15.0434 15.0619 14.8402 15.2293 14.6728C15.4086 14.4815 15.6478 14.3739 15.8869 14.3739C16.2097 14.3739 16.2456 14.4097 16.2456 14.7326C16.2456 14.9358 16.3293 15.2467 16.4249 15.45C16.5206 15.6532 16.7597 15.8924 16.963 15.988C17.1543 16.0837 17.4413 16.1674 17.5848 16.1674C17.8 16.1674 17.7402 16.1076 17.3815 15.9521C17.0826 15.8087 16.8434 15.6054 16.7478 15.3782C16.6521 15.151 16.6282 14.9119 16.688 14.6847C16.7358 14.4934 16.8195 14.326 16.8673 14.3021C16.9271 14.2782 16.963 14.1347 16.963 13.9912C16.963 13.8358 16.9032 13.6445 16.8195 13.5608C16.7358 13.4771 16.6043 13.4173 16.5326 13.4173C16.4489 13.4173 16.1619 13.6565 15.8749 13.9315ZM28.7882 13.6923C28.6926 13.8956 28.7045 14.0391 28.848 14.3499C28.9556 14.5532 29.0393 14.8521 29.0393 15.0076C29.0513 15.151 28.9437 15.4021 28.8121 15.5695C28.6806 15.7369 28.4056 15.9402 28.1784 16.0239L27.7839 16.1674C28.5969 16.0717 28.8361 15.9521 29.0632 15.6891C29.3143 15.4261 29.398 15.2108 29.398 14.8521C29.398 14.4097 29.4219 14.3739 29.7209 14.3739C29.9122 14.3619 30.1991 14.4695 30.3785 14.613C30.5698 14.7445 30.7133 14.9478 30.7133 15.0673C30.7133 15.175 30.5339 15.5456 30.2948 15.8685C30.0676 16.2032 29.8763 16.5261 29.8763 16.5859C29.8643 16.6456 29.9361 16.7772 30.0198 16.8489C30.1394 16.9685 30.1872 16.9446 30.2589 16.7293C30.3307 16.5022 30.3904 16.4782 30.7013 16.5619C31.06 16.6456 31.072 16.6337 31.072 16.263C31.072 16.0239 31.2035 15.6891 31.4068 15.4261C31.6579 15.0793 31.6937 14.9358 31.5981 14.8282C31.5144 14.7445 31.2274 14.6249 30.9405 14.5771C30.5578 14.5054 30.247 14.326 29.8404 13.9434C29.5296 13.6565 29.1948 13.4173 29.0991 13.4173C28.9915 13.4173 28.86 13.5369 28.7882 13.6923ZM11.5107 15.0673C11.3792 15.2467 11.2716 15.6891 11.2477 16.1076C11.2118 16.6696 11.2596 16.9565 11.4749 17.4707C11.6542 17.8772 11.989 18.3315 12.3596 18.6663C12.6944 18.9653 13.376 19.4913 13.8901 19.8142C14.476 20.1848 14.8108 20.4838 14.8108 20.6272C14.8108 20.7827 14.739 20.8185 14.476 20.7588C14.2966 20.7229 13.6629 20.4598 13.0771 20.1729C12.4792 19.8859 11.6183 19.3359 11.1281 18.9294C10.5303 18.4272 10.2433 18.2478 10.1835 18.3555C10.1357 18.4272 10.0998 18.7381 10.0998 19.037C10.0998 19.3957 10.2074 19.7544 10.4107 20.1131C10.5901 20.4359 10.9009 20.7588 11.1759 20.9142C11.439 21.0457 11.9651 21.2609 12.3596 21.3686C12.7542 21.4881 13.4836 21.6436 13.9738 21.7153C14.6195 21.8229 14.8706 21.9066 14.8706 22.0262C14.8706 22.1697 14.6314 22.2055 13.5553 22.1936C12.4792 22.1816 12.0727 22.1218 11.2835 21.8588C10.7574 21.6914 10.315 21.5599 10.2911 21.5718C10.2672 21.5957 10.2792 21.799 10.315 22.0262C10.3509 22.2534 10.5064 22.6001 10.6498 22.7914C10.8053 22.9827 11.1401 23.2458 11.4031 23.3653C11.6662 23.4729 12.1325 23.5806 12.4433 23.5806C12.7662 23.5806 13.4358 23.4969 13.9379 23.4012C14.4521 23.3056 14.9662 23.2219 15.0738 23.2219C15.1934 23.2219 15.2891 23.3056 15.2891 23.4012C15.2891 23.5088 15.026 23.6762 14.6314 23.8197C14.2727 23.9512 13.6151 24.1067 13.1608 24.1784C12.7184 24.2382 12.1325 24.298 11.8455 24.298C11.3792 24.298 11.3433 24.3219 11.4151 24.573C11.4509 24.7165 11.6064 24.9556 11.7499 25.111C11.8814 25.2545 12.2162 25.4339 12.4792 25.4936C12.8379 25.5773 13.1488 25.5654 13.6749 25.4219C14.0695 25.3262 14.6075 25.123 14.8706 24.9675C15.1336 24.8241 15.4923 24.6088 15.6717 24.5012C15.9706 24.3219 16.0184 24.3219 16.0902 24.4773C16.1619 24.6088 16.0543 24.8001 15.7673 25.0752C15.5401 25.3143 15.1097 25.6252 14.8108 25.7806C14.5119 25.948 14.0216 26.1393 13.7108 26.235L13.1368 26.3904C13.5553 26.8089 13.8662 26.9643 14.0934 27.0002C14.3445 27.048 14.7032 27.0002 14.9901 26.8926C15.2891 26.773 15.7434 26.4143 16.1858 25.9241C16.5804 25.4936 16.975 25.1469 17.0467 25.1349C17.1304 25.1349 17.2021 25.2067 17.2021 25.2904C17.2021 25.3621 17.0945 25.6491 16.975 25.9121C16.8554 26.1752 16.5684 26.5817 16.3532 26.8089C16.126 27.048 15.7793 27.3589 15.588 27.5024C15.2891 27.7296 15.2651 27.8013 15.4086 27.8969C15.5043 27.9567 15.6956 28.0404 15.8271 28.0763C15.9586 28.1122 16.2217 28.1122 16.4249 28.0643C16.6163 28.0165 16.951 27.8133 17.1543 27.598C17.4174 27.3469 17.6206 26.9404 17.8119 26.2947C18.0272 25.6013 18.1467 25.3741 18.3022 25.3741C18.4217 25.3741 18.6967 25.4458 18.9 25.5295C19.1152 25.6252 19.4141 25.8523 19.5696 26.0437L19.8446 26.3904L19.8326 23.999C18.3978 24.0708 18.1228 24.0349 17.8239 23.8675C17.5967 23.736 17.3217 23.4849 17.1902 23.2816C17.0706 23.0784 16.975 22.7316 16.963 22.5045C16.963 22.2773 17.0467 21.9544 17.1424 21.787C17.238 21.6197 17.3456 21.4044 17.3934 21.3088C17.4492 21.1892 17.3616 21.0497 17.1304 20.8903C16.9391 20.7707 16.3054 20.2088 15.7195 19.6348C15.1456 19.0729 14.201 17.9968 13.6271 17.2435C13.0651 16.4902 12.4433 15.6174 12.264 15.3065C12.0846 14.9837 11.8933 14.7326 11.8336 14.7326C11.7738 14.7326 11.6303 14.876 11.5107 15.0673ZM32.9611 15.9641C32.5187 16.6337 31.7176 17.7217 31.1676 18.3674C30.6176 19.025 29.8524 19.8261 29.4578 20.1609C29.0632 20.4957 28.5969 20.8544 28.4415 20.962L28.1426 21.1533C28.573 21.799 28.6687 22.1577 28.6806 22.4447C28.6806 22.7197 28.573 23.0903 28.4415 23.3175C28.31 23.5208 28.023 23.7838 27.8078 23.8914C27.5328 24.0349 27.198 24.0708 26.6241 24.0469L25.811 23.999V26.3306C26.4567 25.6849 26.8273 25.4578 27.0306 25.4219C27.2458 25.3741 27.473 25.3741 27.5447 25.4099C27.6045 25.4339 27.7002 25.6849 27.748 25.96C27.8078 26.223 27.9752 26.7132 28.1426 27.048C28.31 27.3828 28.585 27.7415 28.7643 27.8611C28.9437 27.9687 29.3143 28.0643 29.6013 28.0643C29.8763 28.0643 30.1752 28.0046 30.2589 27.9209C30.3785 27.8013 30.2709 27.6578 29.7089 27.1437C29.2665 26.7491 28.8958 26.2828 28.7285 25.9121C28.573 25.5893 28.4774 25.2784 28.5132 25.2306C28.5371 25.1708 28.6448 25.1349 28.7404 25.1349C28.8361 25.1349 28.9198 25.1828 28.9198 25.2545C28.9198 25.3262 29.1709 25.6491 29.4817 25.9958C29.8046 26.3306 30.2709 26.7013 30.5339 26.8208C30.797 26.9404 31.1557 27.048 31.335 27.048C31.5263 27.048 31.8372 26.9524 32.0285 26.8448C32.2318 26.7252 32.4111 26.5817 32.435 26.51C32.459 26.4382 32.184 26.2947 31.8133 26.1752C31.4307 26.0437 30.8687 25.7806 30.5459 25.5773C30.223 25.3621 29.8643 25.0632 29.7448 24.8958C29.5774 24.6686 29.5654 24.561 29.673 24.4534C29.7806 24.3577 29.9361 24.4056 30.2948 24.6567C30.5578 24.848 31.072 25.111 31.4307 25.2545C31.7894 25.398 32.3514 25.5295 32.6861 25.5295C33.0847 25.5375 33.4115 25.4657 33.6666 25.3143C33.8818 25.1828 34.1329 24.9317 34.2046 24.7404C34.2883 24.561 34.3362 24.3936 34.3003 24.3817C34.2644 24.3577 33.6786 24.286 32.9851 24.2143C32.2916 24.1425 31.4187 23.9751 31.0361 23.8317C30.6176 23.6762 30.3546 23.5088 30.3546 23.4012C30.3546 23.3056 30.4383 23.2219 30.5339 23.2219C30.6296 23.2219 31.2155 23.3056 31.8133 23.4132C32.4948 23.5327 33.1883 23.5806 33.5829 23.5327C33.9416 23.4969 34.396 23.3534 34.5992 23.2338C34.7905 23.1142 35.0536 22.8153 35.1612 22.5762C35.2808 22.3371 35.3764 22.0142 35.3764 21.8468C35.3764 21.6794 35.3645 21.5479 35.3405 21.5479C35.3286 21.5479 34.9101 21.6794 34.4199 21.8468C33.7742 22.074 33.1405 22.1816 32.172 22.2414C30.8807 22.3251 30.8328 22.3131 30.8328 22.086C30.8328 21.8707 30.9763 21.8229 32.0046 21.6555C32.6383 21.5479 33.4872 21.3327 33.8818 21.1892C34.2764 21.0338 34.7786 20.7349 34.9818 20.5077C35.1971 20.2925 35.4362 19.8859 35.5079 19.6109C35.5797 19.324 35.6036 18.9055 35.5677 18.6783C35.5199 18.4511 35.4721 18.2478 35.4362 18.2359C35.4003 18.212 35.0655 18.475 34.6829 18.8098C34.3123 19.1326 33.7025 19.587 33.3438 19.8142C32.9851 20.0414 32.3274 20.3522 31.8731 20.5196C31.4307 20.687 31.0122 20.8305 30.9524 20.8305C30.8807 20.8305 30.8328 20.7349 30.8328 20.6272C30.8448 20.4957 31.2274 20.1609 31.8731 19.7544C32.435 19.3957 33.1883 18.7859 33.5351 18.4033C34.0253 17.8772 34.2286 17.5663 34.372 17.0402C34.4797 16.6337 34.5275 16.1793 34.4916 15.9282C34.4438 15.7011 34.3123 15.3304 34.1807 15.1271C34.0492 14.9119 33.9057 14.7326 33.8459 14.7326C33.7981 14.7445 33.4035 15.2945 32.9611 15.9641ZM21.4348 16.7891C21.1718 16.8369 20.3229 16.8728 19.5337 16.8848C18.7446 16.8848 17.8837 16.9565 17.6326 17.0402C17.3695 17.112 17.0826 17.2913 16.9989 17.4228C16.8913 17.5783 16.8554 17.8174 16.8913 18.1163C16.9271 18.3555 16.9989 18.5587 17.0467 18.5587C17.1065 18.5707 17.2261 18.487 17.3217 18.3794C17.4174 18.2837 17.6326 18.1641 17.8 18.1283C17.9674 18.0924 18.338 18.1283 18.6369 18.2C19.0435 18.3076 19.3424 18.5109 19.8326 19.0131C20.287 19.4913 20.562 19.8979 20.7174 20.3522C20.8729 20.8185 20.9207 21.1892 20.8729 21.6077C20.837 21.9425 20.6935 22.349 20.562 22.5403C20.4185 22.7197 20.3109 22.8871 20.3109 22.9229C20.3109 22.9588 21.4707 22.9827 22.8816 22.9827H25.4523C24.9023 22.1697 24.8425 21.9425 24.8545 21.3686C24.8545 20.9142 24.9501 20.4598 25.1056 20.1131C25.2371 19.8142 25.4762 19.3957 25.6436 19.1924C25.799 18.9772 26.1817 18.6544 26.4925 18.475C26.8871 18.2598 27.2458 18.1522 27.6165 18.1402C28.023 18.1402 28.2502 18.212 28.4295 18.3794L28.6806 18.6185C28.7882 18.1522 28.8002 17.8891 28.7763 17.7337C28.7524 17.5783 28.585 17.3391 28.4056 17.1957C28.1067 16.9685 27.8437 16.9326 26.0741 16.8728C24.974 16.825 23.9816 16.7652 23.8621 16.7174C23.7544 16.6815 23.6588 16.6696 23.6588 16.7054C23.6588 16.7413 23.7425 16.9206 23.8381 17.1239C23.9338 17.3272 24.149 17.5902 24.3164 17.7217L24.6153 17.9609C24.0892 18.6544 23.7903 19.1446 23.611 19.4913C23.4436 19.8261 23.2044 20.5316 23.0849 21.0457L22.8696 21.9664C22.5468 20.6751 22.3077 19.9696 22.1283 19.575C21.937 19.1805 21.6142 18.6544 21.4109 18.4152L21.0283 17.9609C21.5424 17.6141 21.7457 17.3511 21.8055 17.1359C21.8772 16.9326 21.9251 16.7413 21.9131 16.7293C21.9011 16.7054 21.6859 16.7413 21.4348 16.7891ZM18.338 18.7022C18.2185 18.8457 18.1348 19.0131 18.1467 19.0609C18.1587 19.1207 18.2663 19.0968 18.3978 19.037C18.5293 18.9772 18.8163 18.9174 19.0196 18.9174H19.4141C18.8522 18.5468 18.6609 18.4392 18.613 18.4392C18.5652 18.4392 18.4456 18.5587 18.338 18.7022ZM26.6958 18.6544L26.3491 18.8457C26.9947 18.9533 27.2578 19.025 27.3295 19.0729C27.4252 19.1207 27.485 19.0968 27.485 19.0131C27.4969 18.9294 27.3893 18.7739 27.2697 18.6544C27.0665 18.475 27.0306 18.475 26.6958 18.6544ZM21.6859 23.461C21.7218 23.6284 21.7816 23.8914 21.8174 24.0588C21.8653 24.286 21.8174 24.3817 21.6142 24.4773C21.4707 24.5491 21.2913 24.6925 21.2196 24.8121C21.112 24.9915 21.1479 25.0752 21.387 25.2665C21.5544 25.398 21.8055 25.5056 21.949 25.4936C22.1164 25.4936 22.224 25.5654 22.224 25.673C22.224 25.7686 22.1283 25.8643 22.0088 25.8882C21.9011 25.9121 21.6859 25.8643 21.5424 25.8045C21.3511 25.7089 21.2435 25.7089 21.124 25.8165C21.0044 25.9241 20.9924 26.0676 21.0881 26.3904C21.1479 26.6176 21.2316 26.8089 21.2674 26.8089C21.3033 26.8089 21.399 26.6893 21.4827 26.5458C21.6142 26.2828 21.6261 26.2947 21.5783 26.6893C21.5544 26.9165 21.4587 27.3469 21.375 27.6459C21.2913 27.9448 21.1957 28.2078 21.1718 28.2437C21.1479 28.2796 21.0881 28.2198 21.0283 28.1241C20.9326 27.9806 20.9087 28.0046 20.9087 28.2437C20.9087 28.4111 20.9685 28.6144 21.0522 28.6981C21.1359 28.7818 21.3153 28.8415 21.4468 28.8415C21.5783 28.8535 21.7935 28.9252 21.9251 29.0209C22.0805 29.1405 22.4392 29.2002 22.9055 29.2002C23.324 29.2002 23.6827 29.1644 23.7066 29.1046C23.7305 29.0568 23.3001 27.7535 22.7501 26.211C22.2001 24.6686 21.7218 23.3534 21.6859 23.2816C21.6501 23.2099 21.6501 23.2936 21.6859 23.461ZM22.7022 23.9632C22.6903 24.0469 22.6066 24.1664 22.5109 24.2382C22.3435 24.3458 22.4272 24.6567 23.1207 26.6295C23.5631 27.873 23.9338 28.9252 23.9577 28.9611C23.9816 28.997 24.1729 28.8415 24.3762 28.6263C24.5675 28.423 24.7349 28.1241 24.7349 27.9687C24.7349 27.7296 24.699 27.7176 24.3762 27.7893C24.0892 27.873 24.0055 27.8491 23.9697 27.6698C23.9338 27.5622 23.874 27.2752 23.8262 27.048C23.7784 26.7491 23.8023 26.5937 23.9099 26.5219C24.0055 26.4741 24.1968 26.4502 24.3403 26.498C24.4958 26.5339 24.6153 26.6534 24.6153 26.7491C24.6153 26.8448 24.6632 26.9285 24.7349 26.9285C24.7947 26.9285 24.8306 26.8448 24.7947 26.7491C24.7588 26.6534 24.7349 26.5219 24.7349 26.4502C24.7349 26.3784 24.5436 26.2469 24.3164 26.1513C24.0892 26.0556 23.8979 25.9002 23.8979 25.8165C23.8979 25.7447 23.874 25.5534 23.8381 25.398C23.8023 25.2545 23.8262 25.1349 23.8979 25.1349C23.9577 25.1349 24.0175 25.2425 24.0175 25.3741C24.0175 25.5056 24.0653 25.6132 24.1371 25.6132C24.1968 25.6132 24.3164 25.4936 24.3881 25.3382C24.4599 25.1947 24.4838 24.9556 24.4479 24.8001C24.4121 24.6567 24.2805 24.5132 24.161 24.4773C24.0534 24.4414 23.7903 24.4654 23.599 24.5371C23.336 24.6328 23.2044 24.6208 23.0849 24.5132C22.9773 24.4056 22.9653 24.3219 23.061 24.2382C23.1327 24.1664 23.1805 24.0469 23.1805 23.9632C23.1805 23.8914 23.0729 23.8197 22.9414 23.8197C22.8099 23.8197 22.7022 23.8914 22.7022 23.9632ZM12.3357 26.5937C12.3716 26.6774 12.3716 26.785 12.3238 26.8328C12.276 26.8806 12.1205 26.8687 11.9651 26.8089C11.7857 26.7252 11.6183 26.7371 11.439 26.8328C11.2238 26.9643 11.1998 27.06 11.2596 27.4904C11.3314 27.9089 11.3075 28.0046 11.164 28.0046C11.0683 28.0046 10.9846 28.0524 10.9846 28.1241C10.9846 28.1959 11.1281 28.3513 11.3075 28.4948C11.5466 28.6622 11.7379 28.722 11.9651 28.6741C12.1564 28.6383 12.3238 28.6502 12.3596 28.722C12.3955 28.7937 12.539 28.8176 12.6825 28.7817C12.9097 28.7339 13.1966 28.9731 14.189 29.9535C15.313 31.0774 15.4086 31.197 15.3369 31.5318C15.2891 31.7949 15.3369 31.9742 15.5521 32.2373C15.7912 32.5362 15.8869 32.572 16.3054 32.5123C16.7239 32.4525 16.8315 32.5003 17.1424 32.7992C17.3337 32.9905 17.5728 33.146 17.6445 33.146C17.7282 33.146 17.8358 33.0742 17.8717 32.9905C17.9076 32.9188 17.7761 32.6916 17.5608 32.4883C17.3456 32.2851 17.2141 32.0579 17.25 31.9742C17.2858 31.9025 17.5728 31.747 17.8837 31.6514C18.2065 31.5438 18.7326 31.4242 19.0793 31.3764L19.7011 31.2927C19.6533 30.3481 19.7131 30.2166 19.9522 30.0133C20.1674 29.8459 20.3468 29.7981 20.6098 29.8459C20.8011 29.8937 21.124 30.0731 21.3033 30.2524C21.4827 30.4318 21.7337 30.7905 21.8653 31.0535L22.0925 31.5318C20.8489 31.9981 20.2033 32.321 19.8446 32.5481C19.4859 32.7753 19.0315 33.1818 18.8522 33.4449C18.6609 33.7079 18.5174 34.0188 18.5174 34.1264C18.5174 34.246 18.6489 34.4732 18.8163 34.6406C18.9837 34.808 19.187 34.9395 19.2587 34.9395C19.3424 34.9514 19.5098 34.7123 19.6174 34.4373C19.725 34.1503 20.0718 33.6362 20.3946 33.2775C20.7055 32.9307 21.1957 32.5123 21.4707 32.3568C21.7577 32.2014 22.0805 32.0818 22.1881 32.1057C22.3435 32.1296 22.2359 32.2492 21.8294 32.5242C21.5185 32.7275 21.1359 33.0862 20.9805 33.2894C20.8131 33.5047 20.5739 33.9471 20.4305 34.2819C20.2033 34.808 20.1913 34.9156 20.3348 35.2264C20.4185 35.4178 20.6337 35.6449 20.8131 35.7286C21.1 35.8721 21.1598 35.8721 21.2077 35.7167C21.2435 35.621 21.2674 35.4058 21.2674 35.2384C21.2674 35.071 21.399 34.5808 21.5783 34.1264C21.7457 33.684 22.0088 33.1699 22.1642 32.9666C22.3555 32.7394 22.4631 32.6797 22.4631 32.7873C22.4631 32.8829 22.4033 33.1579 22.3435 33.3851C22.2718 33.6123 22.1403 34.2579 22.0446 34.8199C21.8892 35.7167 21.8892 35.8721 22.0446 36.0993C22.1403 36.2547 22.3555 36.458 22.5229 36.5536C22.7859 36.7091 22.8696 36.7091 23.1446 36.5656C23.336 36.4819 23.5512 36.2786 23.6349 36.1232C23.7544 35.9199 23.7784 35.6449 23.7186 35.2384C23.6827 34.9036 23.5273 34.2221 23.3838 33.7199C23.2403 33.2058 23.1566 32.7634 23.2044 32.7275C23.2642 32.6916 23.4316 32.871 23.599 33.1101C23.7664 33.3612 23.9936 33.8275 24.1251 34.1623C24.2447 34.4851 24.3881 35.0112 24.424 35.3221C24.4599 35.6449 24.5436 35.896 24.6153 35.896C24.6751 35.896 24.8903 35.7406 25.0936 35.5373C25.2849 35.3341 25.4523 35.059 25.4523 34.9036C25.4523 34.7601 25.3208 34.3656 25.1653 34.0427C24.9979 33.7079 24.6392 33.2297 24.3523 32.9547C24.0653 32.6916 23.7305 32.4166 23.599 32.3449C23.4675 32.2731 23.4077 32.1655 23.4555 32.1057C23.5153 32.0579 23.7784 32.1296 24.0534 32.2851C24.3284 32.4286 24.7349 32.7155 24.9382 32.9068C25.1534 33.1101 25.5001 33.4927 25.6914 33.7677C25.8947 34.0547 26.0741 34.4253 26.1099 34.6047C26.1458 34.808 26.2414 34.9395 26.3491 34.9395C26.4567 34.9395 26.6719 34.808 26.8273 34.6406C26.9947 34.4732 27.1262 34.2221 27.1262 34.0666C27.1382 33.9232 26.923 33.5645 26.6719 33.2655C26.3969 32.9427 25.8708 32.5481 25.3806 32.297C24.9262 32.0579 24.3523 31.7949 24.1012 31.7231C23.8621 31.6514 23.6588 31.5198 23.6588 31.4361C23.6588 31.3644 23.8142 31.0416 24.0175 30.7187C24.2088 30.4079 24.5316 30.0731 24.7349 29.9774C24.9262 29.8818 25.1893 29.7981 25.2969 29.7981C25.4164 29.7981 25.6436 29.9296 25.811 30.097C26.0741 30.36 26.098 30.4677 26.0143 30.8742C25.9306 31.3525 25.9306 31.3525 26.3132 31.3525C26.5284 31.3525 27.0067 31.4362 27.3654 31.5318C27.7241 31.6275 28.1545 31.8068 28.3219 31.9144C28.4893 32.022 28.7643 32.2612 28.9437 32.4525C29.135 32.6318 29.4578 32.8231 29.6611 32.859C29.8763 32.9068 30.2111 32.8949 30.4144 32.847C30.6057 32.7992 30.9524 32.584 31.1557 32.3568C31.4546 32.0459 31.5502 31.8427 31.5502 31.4959C31.5502 31.2568 31.4426 30.8742 31.3111 30.659C31.1796 30.4557 31.0002 30.2763 30.9165 30.2763C30.8448 30.2763 30.6057 30.4079 30.4144 30.5753L30.0557 30.8622L29.1589 30.1568C28.6926 30.7187 28.5611 30.9459 28.5611 31.0177C28.5611 31.1372 28.4176 31.1492 27.9632 31.0774C27.6404 31.0296 27.2339 30.922 27.0784 30.8383L26.7795 30.6948C27.2697 29.7622 27.4371 29.26 27.461 28.9611C27.4969 28.6263 27.4491 28.2915 27.3415 28.0643C27.2339 27.8611 26.9589 27.61 26.7197 27.4904C26.4806 27.3828 26.1817 27.2872 26.0501 27.2872C25.8349 27.2872 25.811 27.3709 25.811 28.1241C25.811 28.8535 25.7751 28.997 25.5121 29.26C25.261 29.5231 25.1175 29.5589 24.4718 29.5589C23.8621 29.547 23.6229 29.6068 23.2403 29.8579L22.762 30.1687C22.2479 29.6665 22.0327 29.6068 21.2555 29.5589C20.5739 29.5111 20.2631 29.4394 20.1076 29.2839C19.9402 29.1285 19.8805 28.8535 19.8565 28.1839C19.8326 27.3469 19.8207 27.2872 19.5576 27.2872C19.4141 27.2872 19.1152 27.3948 18.9 27.5263C18.6967 27.6578 18.4337 27.9687 18.3261 28.2078C18.2065 28.4948 18.1587 28.8176 18.2065 29.0807C18.2424 29.3078 18.4098 29.7622 18.5652 30.097C18.7326 30.4198 18.8283 30.7307 18.7804 30.7905C18.7326 30.8383 18.338 30.9459 17.8956 31.0296C17.1782 31.1611 17.0467 31.1492 16.7239 30.9579C16.5326 30.8503 16.2576 30.7666 16.126 30.7785C15.9706 30.8024 15.4565 30.4079 14.5717 29.5829C13.8542 28.9133 13.2564 28.2676 13.2564 28.148C13.2564 28.0404 13.2205 27.7296 13.1847 27.4665C13.1488 27.2035 12.9934 26.8687 12.8499 26.7132C12.7184 26.5697 12.527 26.4502 12.4314 26.4502C12.3357 26.4502 12.2999 26.5219 12.3357 26.5937ZM29.7806 29.2241L29.5176 29.4992L30.0557 30.0372L30.5937 29.4992L30.0437 28.9611L29.7806 29.2241Z" fill="#F2F2F2"/>
</svg>
