<svg width="40" height="40" viewBox="0 0 40 40" fill="none" xmlns="http://www.w3.org/2000/svg">
<path d="M0 19.2C0 10.1488 -2.6226e-06 5.6186 2.81116 2.81116C5.62232 0.00372076 10.1488 0 19.2 0H20.8C29.8512 0 34.3814 0 37.1888 2.81116C39.9963 5.62233 40 10.1488 40 19.2V20.8C40 29.8512 40 34.3814 37.1888 37.1888C34.3777 39.9963 29.8512 40 20.8 40H19.2C10.1488 40 5.6186 40 2.81116 37.1888C0.00371814 34.3777 0 29.8512 0 20.8V19.2Z" fill="url(#paint0_linear_2067_53)"/>
<path fill-rule="evenodd" clip-rule="evenodd" d="M8.23984 19.5348C14.6361 16.7478 18.9016 14.9103 21.0361 14.0222C27.131 11.4864 28.3961 11.0455 29.2222 11.0325C29.5254 11.0253 29.8231 11.1145 30.0724 11.2874C30.2468 11.4394 30.3582 11.651 30.385 11.8808C30.4294 12.1669 30.4419 12.4571 30.4222 12.746C30.091 16.2157 28.6622 24.6362 27.9347 28.5208C27.6278 30.1655 27.0231 30.7181 26.4352 30.772C25.1608 30.8892 24.1933 29.9292 22.9598 29.1199C21.0287 27.8548 19.9366 27.0734 18.0631 25.8306C15.8957 24.4036 17.3003 23.6185 18.5357 22.3367C18.8594 21.9999 24.4724 16.8929 24.5822 16.4297C24.5963 16.3617 24.5943 16.2913 24.5766 16.2241C24.5588 16.157 24.5257 16.0949 24.4798 16.0427C24.4132 15.9997 24.3372 15.9732 24.2583 15.9654C24.1793 15.9577 24.0997 15.9688 24.0259 15.9981C23.8324 16.0427 20.7471 18.0818 14.7701 22.1153C13.8932 22.7181 13.1 23.0114 12.3905 22.9953C11.6054 22.9785 10.0984 22.5525 8.97845 22.1878C7.60543 21.7413 6.51333 21.505 6.60822 20.746C6.65659 20.3491 7.20046 19.9453 8.23984 19.5348Z" fill="white"/>
<defs>
<linearGradient id="paint0_linear_2067_53" x1="0" y1="20" x2="40" y2="20" gradientUnits="userSpaceOnUse">
<stop stop-color="#2AABEE"/>
<stop offset="1" stop-color="#229ED9"/>
</linearGradient>
</defs>
</svg>
