<svg width="40" height="40" viewBox="0 0 40 40" fill="none" xmlns="http://www.w3.org/2000/svg">
<path d="M0 19.2C0 10.1488 0 5.6186 2.81116 2.81116C5.62233 0.00372076 10.1488 0 19.2 0H20.8C29.8512 0 34.3814 0 37.1888 2.81116C39.9963 5.62233 40 10.1488 40 19.2V20.8C40 29.8512 40 34.3814 37.1888 37.1888C34.3777 39.9963 29.8512 40 20.8 40H19.2C10.1488 40 5.6186 40 2.81116 37.1888C0.00372076 34.3777 0 29.8512 0 20.8V19.2Z" fill="#0077FF"/>
<path d="M20.8369 28.093C12.3048 28.093 7.44157 22.2437 7.23692 12.5116H11.516C11.6555 19.6558 14.8072 22.6809 17.302 23.3023V12.5116H21.3262V18.6735C23.7895 18.4074 26.3792 15.6 27.2518 12.5116H31.276C30.6062 16.3181 27.7988 19.1256 25.8025 20.2791C27.7988 21.2093 30.9951 23.6633 32.2118 28.093H27.7746C26.8239 25.1163 24.4537 22.8279 21.3188 22.5116V28.093H20.8369Z" fill="white"/>
</svg>
