<svg width="40" height="40" viewBox="0 0 40 40" fill="none" xmlns="http://www.w3.org/2000/svg">
<rect width="40" height="40" rx="9" fill="#EEEEEE"/>
<path d="M12.2316 10.1165C12.3865 10.0349 12.6067 9.9452 12.7208 9.91257C12.835 9.88402 13.0796 9.85547 13.2713 9.85547C13.4629 9.85547 13.7116 9.87586 13.8217 9.90849C13.9359 9.93704 14.1071 9.99822 14.2091 10.0431C14.311 10.0839 14.5108 10.2021 14.6576 10.3C14.8043 10.3979 15.0694 10.6263 15.2529 10.8098C15.4323 10.9893 15.6891 11.2748 15.8237 11.442C15.9542 11.6092 16.1988 11.9518 16.366 12.1965C16.5331 12.4413 16.7655 12.8491 16.8838 13.0938C17.0061 13.3385 17.1488 13.7056 17.21 13.9095C17.2915 14.1909 17.316 14.3745 17.3201 14.6844C17.3201 14.9495 17.2956 15.1861 17.2507 15.3574C17.2141 15.5042 17.1366 15.7245 17.0795 15.8468C17.0224 15.9692 16.896 16.1894 16.7982 16.3362C16.7044 16.4831 16.4964 16.74 16.3415 16.9072C16.1866 17.0745 16.0275 17.258 15.9909 17.3151C15.946 17.3763 15.9215 17.4986 15.9215 17.621C15.9215 17.7311 15.9582 17.935 16.0031 18.0696C16.052 18.2042 16.1539 18.4326 16.2355 18.5794C16.3211 18.7263 16.5454 19.0566 16.7411 19.3136C16.9368 19.5705 17.2834 19.9947 17.5158 20.2516C17.7441 20.5086 18.2375 21.0225 18.6085 21.3895C18.9795 21.7607 19.5137 22.2623 19.795 22.5071C20.0763 22.7518 20.4963 23.0984 20.7328 23.2738C20.9693 23.4533 21.3607 23.698 21.6094 23.8203C21.8948 23.9672 22.1313 24.0569 22.2618 24.0732C22.3719 24.0854 22.5146 24.0854 22.5757 24.0691C22.641 24.0569 22.8979 23.853 23.1629 23.6083C23.4198 23.3635 23.7826 23.0617 23.9661 22.9271C24.1496 22.7966 24.4472 22.6172 24.6266 22.5315C24.806 22.4459 25.0996 22.3358 25.279 22.2868C25.5033 22.2297 25.7357 22.2052 26.0333 22.2012C26.331 22.2012 26.5675 22.2256 26.808 22.2827C26.9996 22.3317 27.2932 22.4255 27.4604 22.4948C27.6276 22.5642 27.913 22.7069 28.0924 22.8129C28.2718 22.919 28.5653 23.1148 28.7447 23.2453C28.9242 23.3799 29.2136 23.6246 29.393 23.7959C29.5684 23.9672 29.7926 24.216 29.8864 24.3505C29.9843 24.4851 30.1188 24.7135 30.1881 24.8604C30.2574 25.0072 30.3431 25.2641 30.3798 25.4314C30.4287 25.6475 30.4409 25.8351 30.4246 26.0635C30.4124 26.243 30.3553 26.5366 30.2982 26.7161C30.2411 26.8955 30.1066 27.1933 30.0006 27.3768C29.8946 27.5644 29.6907 27.8581 29.5521 28.0294C29.4134 28.2048 29.1199 28.5229 28.8997 28.735C28.6795 28.9511 28.3248 29.2692 28.1128 29.4487C27.9007 29.6241 27.6153 29.8199 27.4808 29.881C27.3462 29.9463 27.1179 30.0279 26.9711 30.0686C26.7591 30.1257 26.5471 30.1421 25.911 30.1421C25.2423 30.1421 25.0425 30.1257 24.647 30.0442C24.3902 29.9952 23.9661 29.8892 23.7092 29.8158C23.4524 29.7383 23.0283 29.5955 22.7715 29.4976C22.5146 29.3998 22.1028 29.2244 21.8541 29.1143C21.6053 29.0001 21.1405 28.7635 20.8143 28.5841C20.4882 28.4046 20.0029 28.1191 19.7338 27.9519C19.4647 27.7806 19.0081 27.4706 18.7145 27.2667C18.4209 27.0587 17.9276 26.6835 17.6136 26.4306C17.2997 26.1818 16.8512 25.8025 16.6147 25.5945C16.3782 25.3865 15.8889 24.9215 15.522 24.5586C15.155 24.1956 14.6413 23.6613 14.3803 23.3717C14.1153 23.0821 13.7728 22.6865 13.6138 22.4948C13.4548 22.3031 13.1245 21.883 12.8758 21.5568C12.6311 21.2305 12.256 20.7003 12.0399 20.374C11.8238 20.0477 11.4854 19.4971 11.2897 19.1504C11.0899 18.8038 10.7963 18.2328 10.6373 17.8861C10.4742 17.5394 10.2581 17.0174 10.1521 16.7237C10.0461 16.4301 9.89524 15.9447 9.82185 15.6429C9.74438 15.3411 9.6506 14.8721 9.61798 14.6029C9.57313 14.2684 9.5609 13.9625 9.57721 13.6444C9.58944 13.3875 9.62614 13.0653 9.66283 12.9307C9.69545 12.7961 9.79331 12.5473 9.87486 12.3801C10.0013 12.1231 10.1236 11.9722 10.6577 11.4257C11.0084 11.0709 11.4406 10.663 11.62 10.5203C11.7994 10.3775 12.0725 10.194 12.2316 10.1165Z" fill="#454545"/>
</svg>
