<svg width="40" height="40" viewBox="0 0 40 40" fill="none" xmlns="http://www.w3.org/2000/svg">
<rect width="40" height="40" rx="9" fill="#EEEEEE"/>
<path d="M11.8781 12.9934C11.8694 12.9674 11.9559 12.9328 12.0727 12.9112H12.0684C12.1851 12.8896 15.7314 12.8723 19.9524 12.868C25.9768 12.8637 27.6808 12.8766 27.8797 12.9155C28.0138 12.9458 28.1219 12.9847 28.1176 13.002C28.109 13.0193 26.4872 14.3901 24.5151 16.042C22.0413 18.1176 20.852 19.0862 20.6876 19.164C20.5146 19.2462 20.3546 19.2851 20.1038 19.2981C19.8486 19.3154 19.6973 19.2981 19.5199 19.2419C19.3902 19.1986 19.2129 19.1251 19.1307 19.0732C19.0485 19.0257 17.3835 17.6419 15.433 16.0074C13.4826 14.3728 11.8824 13.015 11.8781 12.9934Z" fill="#454545"/>
<path d="M10.3774 14.602C10.412 14.455 10.4639 14.295 10.4898 14.2431C10.5374 14.1566 10.5504 14.1609 10.7623 14.3425C10.8834 14.4506 12.4922 15.7998 14.3345 17.3435C16.1769 18.8873 17.7944 20.2364 17.9241 20.3402C18.0539 20.444 18.2874 20.591 18.4431 20.6689C18.5988 20.7467 18.8712 20.8548 19.0485 20.911C19.3253 21.0018 19.4637 21.0148 20 21.0148C20.5363 21.0148 20.6747 21.0018 20.9515 20.911C21.1288 20.8548 21.4012 20.7467 21.5569 20.6689C21.7126 20.591 21.9461 20.444 22.0759 20.3402C22.2056 20.2364 23.8664 18.8484 25.7693 17.2527L26.0764 16.9953C27.8387 15.5181 29.2872 14.304 29.4713 14.1609L29.5318 14.2993C29.5621 14.3771 29.6097 14.5458 29.6399 14.6669C29.6745 14.8312 29.6875 16.3273 29.6875 19.9986C29.6875 23.5358 29.6745 25.1704 29.6399 25.3304C29.614 25.4514 29.5275 25.6979 29.4453 25.8666C29.3415 26.0871 29.2161 26.2644 29.0172 26.4633C28.8225 26.6579 28.6409 26.7876 28.4247 26.8914C28.2517 26.9735 27.9922 27.06 27.8495 27.086C27.6678 27.1206 25.2546 27.1335 20 27.1335C14.7454 27.1335 12.3322 27.1206 12.1505 27.086C12.0078 27.06 11.7483 26.9735 11.5797 26.8914C11.3634 26.7919 11.1775 26.6579 10.9958 26.4719C10.8444 26.3249 10.6628 26.0871 10.585 25.9444C10.5114 25.8017 10.4163 25.5595 10.3817 25.4039C10.3211 25.1574 10.3125 24.4698 10.3125 19.9986C10.3125 15.6182 10.3211 14.8355 10.3774 14.602Z" fill="#454545"/>
</svg>
