<svg width="40" height="40" viewBox="0 0 40 40" fill="none" xmlns="http://www.w3.org/2000/svg">
<path d="M0 19.2C0 10.1488 -2.6226e-06 5.6186 2.81116 2.81116C5.62232 0.00371814 10.1488 0 19.2 0H20.8C29.8512 0 34.3814 -2.6226e-06 37.1888 2.81116C39.9963 5.62232 40 10.1488 40 19.2V20.8C40 29.8512 40 34.3814 37.1888 37.1888C34.3777 39.9963 29.8512 40 20.8 40H19.2C10.1488 40 5.6186 40 2.81116 37.1888C0.00371814 34.3777 0 29.8512 0 20.8V19.2Z" fill="black"/>
<path fill-rule="evenodd" clip-rule="evenodd" d="M19.5686 6.35747C19.4998 11.8812 19.124 14.9863 17.0533 17.0589C14.9826 19.1314 11.8812 19.5072 6.36119 19.5761V20.3928C11.8812 20.4617 14.9826 20.8393 17.0533 22.91C19.124 24.9807 19.4998 28.0877 19.5686 33.6114H20.3854C20.4542 28.0877 20.83 24.9826 22.9007 22.91C24.9714 20.8375 28.0728 20.4617 33.591 20.3928V19.5761C28.0728 19.5072 24.9696 19.1296 22.9007 17.0589C20.8319 14.9882 20.4542 11.8812 20.3854 6.35747H19.5686Z" fill="white"/>
</svg>
