<svg width="31" height="34" viewBox="0 0 31 34" fill="none" xmlns="http://www.w3.org/2000/svg">
<path d="M4.32756 28.2798C4.32762 29.0528 4.95427 29.6795 5.72729 29.6795H25.2035V30.4035C25.2035 30.8138 25.0586 31.4171 24.9138 31.7549C24.7449 32.1169 24.3105 32.5514 23.9485 32.7203C23.3934 32.9858 21.2452 33.0583 2.51751 33.0583C1.58451 33.0583 0.828156 32.3019 0.828125 31.3689V20.9189C0.852259 11.917 0.900441 10.4205 1.21418 9.91363C1.43138 9.59989 1.84171 9.18956 2.10718 9.02063C2.39679 8.85169 3.00019 8.70703 4.20689 8.68289L4.32756 28.2798Z" fill="#43DCA6"/>
<path fill-rule="evenodd" clip-rule="evenodd" d="M27.1825 3.01139C28.6079 3.20325 30.4359 3.01146 30.875 4.50775V25.4424L30.859 25.5319C30.6753 26.5534 29.859 27.343 28.8321 27.4928L28.7324 27.5074H18.9287C11.7608 27.5074 8.38203 27.4349 8.02002 27.2418C7.70628 27.097 7.27185 26.735 7.05466 26.4454C6.66855 25.9869 6.62029 25.0213 6.62029 15.4887C6.62029 8.85242 6.71685 4.87032 6.86163 4.50775C7.5248 3.18142 9.08245 3.17405 10.3611 3.25273L10.4817 4.99043C10.5783 6.2212 10.7471 6.92117 11.1091 7.40383C11.3746 7.76583 11.978 8.27266 12.4365 8.48987C13.1364 8.87601 14.0053 8.92423 18.7597 8.92423C23.4898 8.92423 24.3587 8.87588 25.1069 8.51391C25.6137 8.27257 26.2172 7.7658 26.5068 7.35552C27.127 6.71609 27.1823 3.02791 27.1825 3.01139Z" fill="#43DCA6"/>
<path d="M18.7597 0.984039C21.4627 0.959905 22.4764 1.05654 23.0314 1.32201C23.4417 1.51509 23.9244 2.04604 24.1175 2.52871C24.3105 2.98727 24.4795 3.88029 24.4795 4.50775C24.4795 5.15933 24.3588 5.811 24.1898 5.95579C23.9724 6.19707 22.5724 6.26949 18.832 6.26949C15.0432 6.26949 13.6676 6.19702 13.4261 5.97983C13.2572 5.78676 13.1366 5.06276 13.1124 4.21809C13.1124 3.13211 13.2331 2.60114 13.6192 2.09435C13.9088 1.70823 14.3673 1.29791 14.6569 1.20134C14.9465 1.08067 16.7807 0.984041 18.7597 0.984039Z" fill="#43DCA6"/>
</svg>
