<svg width="40" height="40" viewBox="0 0 40 40" fill="none" xmlns="http://www.w3.org/2000/svg">
<g filter="url(#filter0_d_0_167)">
<path d="M18.1759 3.29373C18.9545 2.91251 20.0444 2.50304 20.5823 2.39008C21.2759 2.23477 22.1111 2.17829 23.3426 2.22065C24.6732 2.26301 25.3668 2.34772 26.1029 2.58776C26.6408 2.75719 27.5043 3.11018 28.0138 3.36433C28.5234 3.61848 29.3444 4.14091 29.8399 4.50802C30.3495 4.88925 31.0855 5.60935 31.496 6.11765C31.8924 6.62595 32.4161 7.38841 32.6568 7.812C32.8974 8.23559 33.2513 9.06864 33.4495 9.64754C33.6335 10.2264 33.8741 11.2431 33.9591 11.9067C34.0864 12.8244 34.0864 13.4034 33.9591 14.3776C33.8741 15.0836 33.6476 16.1284 33.4636 16.7073C33.2654 17.2862 32.8833 18.1616 32.586 18.6417C32.2887 19.1359 31.7933 19.856 31.4819 20.2372C31.1705 20.6326 30.4627 21.3103 29.9248 21.748C29.3869 22.1716 28.5234 22.7364 28.0138 22.9905C27.5043 23.2447 26.6125 23.5977 26.0321 23.7812C25.112 24.0778 24.6874 24.1201 22.918 24.1201C20.9362 24.106 20.8088 24.0919 18.091 23.1317L13.8869 27.3253C9.69695 31.5047 9.6828 31.5329 9.07412 31.5329C8.74855 31.5329 8.30974 31.4482 8.08325 31.3352C7.87092 31.2223 7.02161 30.4457 6.2006 29.5985C4.94079 28.3277 4.67184 27.9748 4.5869 27.5088C4.53028 27.1417 4.55859 26.7887 4.67184 26.5204C4.77092 26.2804 6.68188 24.2472 12.9527 17.9075L12.5705 16.7779C12.3581 16.1567 12.1033 15.1118 12.0184 14.4482C11.9335 13.7705 11.9052 12.8103 11.9618 12.2597C12.0184 11.7231 12.2166 10.7348 12.4006 10.0711C12.5846 9.40751 12.9668 8.4615 13.2499 7.9532C13.5189 7.44489 14.0285 6.68243 14.3682 6.25885C14.7221 5.83526 15.4015 5.1434 15.8828 4.73393C16.3782 4.31034 17.3833 3.67496 18.1759 3.29373Z" fill="#43DCA6"/>
<circle cx="23" cy="13.1719" r="11.2539" stroke="#272727" stroke-width="2"/>
<circle cx="23" cy="13.1719" r="6.40234" fill="#272727"/>
</g>
<defs>
<filter id="filter0_d_0_167" x="0.558594" y="0.917969" width="38.6953" height="38.6147" filterUnits="userSpaceOnUse" color-interpolation-filters="sRGB">
<feFlood flood-opacity="0" result="BackgroundImageFix"/>
<feColorMatrix in="SourceAlpha" type="matrix" values="0 0 0 0 0 0 0 0 0 0 0 0 0 0 0 0 0 0 127 0" result="hardAlpha"/>
<feOffset dy="4"/>
<feGaussianBlur stdDeviation="2"/>
<feComposite in2="hardAlpha" operator="out"/>
<feColorMatrix type="matrix" values="0 0 0 0 0 0 0 0 0 0 0 0 0 0 0 0 0 0 0.25 0"/>
<feBlend mode="normal" in2="BackgroundImageFix" result="effect1_dropShadow_0_167"/>
<feBlend mode="normal" in="SourceGraphic" in2="effect1_dropShadow_0_167" result="shape"/>
</filter>
</defs>
</svg>
