<svg width="34" height="34" viewBox="0 0 34 34" fill="none" xmlns="http://www.w3.org/2000/svg">
<path d="M26.4774 19.4737C26.8931 19.4737 27.5527 19.5342 27.9481 19.6153C28.3436 19.6966 29.0939 19.9805 29.621 20.2442C30.3914 20.6195 30.7363 20.8634 31.3446 21.4923C31.7602 21.9082 32.2572 22.5064 32.4296 22.8106C32.6121 23.115 32.8859 23.7141 33.038 24.13C33.2406 24.718 33.3109 25.1441 33.3514 26.006C33.392 26.8479 33.3524 27.325 33.2206 27.9337C33.1192 28.3902 32.8551 29.1006 32.6219 29.547C32.3786 30.0237 31.9421 30.6419 31.5467 31.0577C31.1818 31.4431 30.574 31.9607 30.1786 32.2042C29.7832 32.4375 29.1032 32.762 28.6571 32.9142C27.9375 33.1677 27.7042 33.1983 26.5282 33.1983C25.3725 33.1983 25.1089 33.168 24.3993 32.9347C23.9533 32.7825 23.2437 32.438 22.828 32.1642C22.4123 31.8903 21.7831 31.3624 21.4383 30.9972C21.0126 30.5509 20.658 30.0335 20.3944 29.4757C20.1714 29.0192 19.9177 28.3497 19.8163 27.9845C19.725 27.599 19.6542 26.9295 19.6542 26.3614C19.6542 25.7934 19.7251 25.1239 19.8163 24.7384C19.9177 24.3732 20.1717 23.714 20.3846 23.2677C20.6381 22.7605 21.023 22.1922 21.4286 21.756C21.7733 21.3705 22.3411 20.8727 22.6757 20.6495C23.0103 20.4162 23.558 20.1222 23.8924 19.9903C24.2271 19.8585 24.7748 19.6863 25.1092 19.6153C25.4438 19.5342 26.0618 19.4738 26.4774 19.4737ZM0.967645 19.0577C0.998061 19.0577 1.24212 19.2097 1.50573 19.4024C1.77947 19.5951 2.24562 19.8888 2.54968 20.0714C2.85381 20.254 3.54298 20.5793 4.07018 20.8126C4.59741 21.0358 5.53081 21.3397 6.14929 21.502C6.76779 21.6542 7.81222 21.8576 8.48132 21.9591C9.27211 22.0706 10.3873 22.1315 11.6747 22.1417C12.8102 22.1417 14.0575 22.0906 14.6151 22.0196C15.1422 21.9385 16.1053 21.7661 16.744 21.6241C17.3828 21.4821 18.4175 21.1777 19.036 20.9444C19.9943 20.5893 20.1366 20.5445 20.0282 20.7022L19.9686 20.7823C19.8671 20.9245 19.5631 21.3499 19.2997 21.7452C19.0462 22.1408 18.7115 22.7705 18.5594 23.1661C18.4074 23.5618 18.2038 24.2617 18.1024 24.7384C17.9808 25.3874 17.9506 25.8845 17.9911 26.7667C18.0215 27.4057 18.133 28.2378 18.4169 29.3028L17.6571 29.547C17.2415 29.6788 16.4403 29.8914 15.8827 30.003C15.3252 30.1146 14.3418 30.2562 13.703 30.3272C13.0034 30.3983 11.9484 30.4186 11.0663 30.378C10.2554 30.3476 9.14062 30.2463 8.58288 30.1651C8.02529 30.0738 7.18346 29.9216 6.7069 29.7999C6.23045 29.6883 5.42932 29.4354 4.93249 29.2325C4.43575 29.0398 3.72625 28.7043 3.3612 28.4913C2.99628 28.2783 2.43861 27.8626 2.11413 27.5685C1.74913 27.2337 1.41436 26.7971 0.978387 25.9044L0.948113 22.4757C0.927956 20.6099 0.937635 19.0753 0.967645 19.0577ZM25.8622 23.4962V25.6427H23.7264V27.2325H25.8622V29.379H27.4745V27.2325H29.6092V25.6427H27.4745V23.4962H25.8622ZM22.4217 12.5958C22.4217 15.3953 22.4018 16.136 22.2801 16.42C22.199 16.6128 22.0068 16.9477 21.8446 17.1505C21.6925 17.3635 21.307 17.7287 21.0028 17.962C20.6885 18.2055 20.1205 18.5605 19.7352 18.7735C19.3398 18.9764 18.6099 19.2804 18.1132 19.463C17.6165 19.6354 16.6534 19.8887 15.9842 20.0206C15.3151 20.1525 14.1486 20.3148 13.3983 20.3858C12.5974 20.4467 11.4823 20.4772 10.7118 20.4366C9.98178 20.396 8.8458 20.2742 8.17663 20.1524C7.50754 20.0408 6.57501 19.8384 6.0985 19.6964C5.6221 19.5645 4.91257 19.3108 4.52721 19.1485C4.13181 18.9761 3.54345 18.6717 3.20886 18.4688C2.87427 18.266 2.35677 17.8701 2.05261 17.586C1.75863 17.3121 1.39392 16.8454 0.978387 16.0645L0.948113 12.5851C0.927961 10.6896 0.937659 9.13515 0.967645 9.1163C0.998049 9.1163 1.31254 9.32865 1.6571 9.58212C2.01196 9.83573 2.68154 10.242 3.15807 10.4854C3.63461 10.7188 4.4357 11.0532 4.93249 11.2257C5.4293 11.388 6.41261 11.6419 7.11218 11.794C7.81176 11.9361 8.96811 12.098 9.69811 12.169C10.4788 12.24 11.6348 12.2604 12.537 12.2198C13.3683 12.1894 14.5135 12.0881 15.0712 12.0069C15.6288 11.9258 16.5622 11.7335 17.1503 11.6017C17.7382 11.4596 18.5792 11.2057 19.0253 11.0333C19.4714 10.8608 20.131 10.5663 20.496 10.3634C20.8609 10.1605 21.4388 9.80572 22.4217 9.1163V12.5958ZM12.0292 0.837983C13.621 0.868416 14.4633 0.929579 15.3758 1.09189C16.0449 1.2035 17.1598 1.48694 17.8592 1.71005C18.569 1.93323 19.5019 2.32971 19.9784 2.60361C20.4448 2.86736 21.0944 3.33346 21.4188 3.63779C21.7635 3.96239 22.0878 4.39894 22.2196 4.70322C22.3514 4.98726 22.453 5.41354 22.453 5.66708C22.4428 5.9207 22.3717 6.30629 22.2704 6.52939C22.1791 6.75256 21.9554 7.11718 21.7831 7.33017C21.6006 7.55335 21.185 7.93924 20.8505 8.18271C20.5159 8.42617 19.9275 8.781 19.5321 8.97373C19.1367 9.15632 18.478 9.43037 18.0624 9.57236C17.6467 9.71436 16.9168 9.92756 16.4403 10.0392C15.9638 10.1507 15.0304 10.3125 14.3612 10.3936C13.4488 10.5153 12.6377 10.5465 11.1171 10.506C9.92068 10.4755 8.71398 10.3844 8.17663 10.2931C7.6798 10.2018 6.73721 9.98796 6.0985 9.81552C5.45975 9.65321 4.56708 9.3391 4.12096 9.12607C3.67485 8.90287 3.00581 8.49698 2.63073 8.21298C2.24566 7.92908 1.76958 7.48299 1.55651 7.20908C1.35373 6.94532 1.10991 6.4986 1.03893 6.2247C0.95783 5.94067 0.917698 5.57548 0.948113 5.41318C0.978546 5.24071 1.0899 4.92599 1.19128 4.71298C1.30283 4.48988 1.56603 4.10481 1.78893 3.86142C2.01199 3.60781 2.44863 3.23228 2.7528 3.02939C3.05699 2.81636 3.58428 2.51199 3.91882 2.3497C4.2535 2.17724 4.963 1.89321 5.49011 1.7208C6.01733 1.55849 6.77769 1.3453 7.16296 1.254C7.54824 1.1627 8.32895 1.03046 8.88659 0.949311C9.5861 0.847887 10.5593 0.817708 12.0292 0.837983Z" fill="#43DCA6"/>
</svg>
