<svg width="95" height="41" viewBox="0 0 95 41" fill="none" xmlns="http://www.w3.org/2000/svg">
<path d="M43.8598 12.8983H36.4899V25.6396H42.6419V26.5452H36.4899V34.5084H43.8598V35.4141H35.4593V11.9927H43.8598V12.8983ZM37.9888 8.58882C37.3851 8.58882 37.0832 8.30776 37.0832 7.74565C37.0832 7.18353 37.3851 6.90248 37.9888 6.90248C38.5926 6.90248 38.8945 7.18353 38.8945 7.74565C38.8945 8.30776 38.5926 8.58882 37.9888 8.58882ZM41.2678 8.58882C40.7057 8.58882 40.4246 8.30776 40.4246 7.74565C40.4246 7.18353 40.7057 6.90248 41.2678 6.90248C41.8507 6.90248 42.1422 7.18353 42.1422 7.74565C42.1422 8.30776 41.8507 8.58882 41.2678 8.58882ZM47.573 35.4141H46.6674L53.5689 20.9553L60.5016 35.4141H59.4086L53.4752 23.0788L47.573 35.4141ZM64.5664 21.3613H67.1896C68.0016 21.3613 68.6678 21.6423 69.1883 22.2044C69.7295 22.7457 70.0002 23.4744 70.0002 24.3904C70.0002 25.3065 69.615 26.0143 68.8447 26.514C69.6775 26.7638 70.3749 27.3051 70.937 28.1378C71.52 28.9706 71.8114 29.9387 71.8114 31.0421C71.8114 32.1455 71.3638 33.1552 70.4686 34.0712C69.5734 34.9665 68.4804 35.4141 67.1896 35.4141H64.5664V21.3613ZM67.2521 27.0448H65.5658V34.5709H67.2521C68.2514 34.5709 69.105 34.2066 69.8128 33.4779C70.5415 32.7284 70.9058 31.8332 70.9058 30.7923C70.9058 29.7513 70.5415 28.8665 69.8128 28.1378C69.105 27.4092 68.2514 27.0448 67.2521 27.0448ZM67.2209 22.2044H65.5658V26.2017H67.2833C67.783 26.2017 68.2202 26.0143 68.5949 25.6396C68.9697 25.244 69.157 24.786 69.157 24.2655C69.157 23.7242 68.9592 23.2454 68.5637 22.829C68.1681 22.4126 67.7205 22.2044 67.2209 22.2044ZM90.0389 21.3613V35.4141H89.0395V31.9165C88.4566 33.1032 87.5822 34.04 86.4164 34.727C85.2505 35.4141 84.0014 35.7576 82.6689 35.7576C80.6287 35.7576 78.8799 35.0393 77.4226 33.6028C75.9652 32.1455 75.2366 30.4071 75.2366 28.3877C75.2366 26.3682 75.9652 24.6402 77.4226 23.2037C78.8799 21.7464 80.6287 21.0177 82.6689 21.0177C84.0014 21.0177 85.2713 21.3717 86.4788 22.0795C87.7071 22.7874 88.5607 23.7242 89.0395 24.8901V21.3613H90.0389ZM76.2359 28.4189C76.2359 30.1677 76.8709 31.6875 78.1408 32.9782C79.4316 34.2482 80.9514 34.8832 82.7002 34.8832C84.4698 34.8832 85.9792 34.2482 87.2283 32.9782C88.4774 31.6875 89.102 30.1677 89.102 28.4189C89.102 26.6493 88.467 25.1191 87.1971 23.8283C85.9479 22.5375 84.449 21.8921 82.7002 21.8921C80.9514 21.8921 79.4316 22.5479 78.1408 23.8595C76.8709 25.1503 76.2359 26.6701 76.2359 28.4189Z" fill="white"/>
<path d="M44.1332 12.8983H36.7633V25.6396H42.9153V26.5452H36.7633V34.5084H44.1332V35.4141H35.7328V11.9927H44.1332V12.8983ZM47.5415 35.4141H46.6359L53.5374 20.9553L60.4701 35.4141H59.3771L53.4437 23.0788L47.5415 35.4141ZM64.5349 21.3613H67.1581C67.97 21.3613 68.6362 21.6423 69.1567 22.2044C69.698 22.7457 69.9687 23.4744 69.9687 24.3904C69.9687 25.3065 69.5835 26.0143 68.8132 26.514C69.646 26.7638 70.3434 27.3051 70.9055 28.1378C71.4884 28.9706 71.7799 29.9387 71.7799 31.0421C71.7799 32.1455 71.3323 33.1552 70.4371 34.0712C69.5419 34.9665 68.4489 35.4141 67.1581 35.4141H64.5349V21.3613ZM67.2206 27.0448H65.5342V34.5709H67.2206C68.2199 34.5709 69.0734 34.2066 69.7813 33.4779C70.51 32.7284 70.8743 31.8332 70.8743 30.7923C70.8743 29.7513 70.51 28.8665 69.7813 28.1378C69.0734 27.4092 68.2199 27.0448 67.2206 27.0448ZM67.1893 22.2044H65.5342V26.2017H67.2518C67.7514 26.2017 68.1886 26.0143 68.5634 25.6396C68.9381 25.244 69.1255 24.786 69.1255 24.2655C69.1255 23.7242 68.9277 23.2454 68.5322 22.829C68.1366 22.4126 67.689 22.2044 67.1893 22.2044ZM90.0073 21.3613V35.4141H89.008V31.9165C88.4251 33.1032 87.5507 34.04 86.3848 34.727C85.219 35.4141 83.9698 35.7576 82.6374 35.7576C80.5972 35.7576 78.8484 35.0393 77.391 33.6028C75.9337 32.1455 75.205 30.4071 75.205 28.3877C75.205 26.3682 75.9337 24.6402 77.391 23.2037C78.8484 21.7464 80.5972 21.0177 82.6374 21.0177C83.9698 21.0177 85.2398 21.3717 86.4473 22.0795C87.6756 22.7874 88.5292 23.7242 89.008 24.8901V21.3613H90.0073ZM76.2044 28.4189C76.2044 30.1677 76.8393 31.6875 78.1093 32.9782C79.4001 34.2482 80.9199 34.8832 82.6686 34.8832C84.4383 34.8832 85.9476 34.2482 87.1968 32.9782C88.4459 31.6875 89.0705 30.1677 89.0705 28.4189C89.0705 26.6493 88.4355 25.1191 87.1655 23.8283C85.9164 22.5375 84.4174 21.8921 82.6686 21.8921C80.9199 21.8921 79.4001 22.5479 78.1093 23.8595C76.8393 25.1503 76.2044 26.6701 76.2044 28.4189Z" fill="white"/>
<path d="M52.9609 21.4665C52.9623 21.4529 52.9618 21.4392 52.9691 21.4272C52.9744 21.4183 52.9785 21.4099 52.9828 21.4004C52.9894 21.3858 52.9991 21.3717 53.0031 21.3558C53.0058 21.3451 53.0078 21.3328 53.0118 21.3227C53.0152 21.3139 53.0208 21.3054 53.0234 21.2963C53.0284 21.2787 53.0345 21.2633 53.0387 21.2455C53.0401 21.2393 53.0384 21.2303 53.0409 21.2245C53.0433 21.2192 53.0465 21.2101 53.0468 21.2042C53.0472 21.1974 53.0494 21.1908 53.0538 21.1854C53.055 21.184 53.0562 21.1795 53.0562 21.1777C53.0562 21.1735 53.0593 21.171 53.0593 21.1675C53.0593 21.1605 53.0648 21.1516 53.0702 21.1472C53.0754 21.1429 53.0734 21.1331 53.0734 21.1269C53.0734 21.1195 53.0853 21.1357 53.0862 21.1383C53.089 21.1463 53.094 21.1558 53.0999 21.1621C53.1045 21.1669 53.103 21.1762 53.103 21.1824C53.103 21.1902 53.1062 21.1969 53.1062 21.2042" stroke="white" stroke-width="0.269211" stroke-linecap="round" stroke-linejoin="bevel"/>
<ellipse cx="31.9396" cy="22.5212" rx="18.2756" ry="18.3063" fill="white" fill-opacity="0.5"/>
<ellipse cx="13.4908" cy="12.6941" rx="12.7252" ry="12.5183" fill="white" fill-opacity="0.52"/>
</svg>
