<svg width="30" height="37" viewBox="0 0 30 37" fill="none" xmlns="http://www.w3.org/2000/svg">
<path d="M20.676 0.703125C21.3292 0.703125 22.2828 0.865881 22.8 1.05176C23.4347 1.28405 23.8882 1.67111 24.1603 2.21289C24.378 2.65418 24.5692 3.30493 24.5422 3.67676C24.5422 4.02528 24.4596 4.46744 24.3508 4.65332C24.1874 4.95499 23.8879 4.97821 22.7179 4.83887C21.3571 4.65301 21.3023 4.62979 21.1662 3.09668L16.5939 4.28125C14.0897 4.93182 12.048 5.53617 12.048 5.65234C12.0489 5.74515 12.5386 5.81445 13.1369 5.81445C13.7365 5.81454 16.5125 6.02398 19.3156 6.30273C22.1464 6.55831 24.8687 6.8606 25.3859 7C25.9031 7.11625 26.7466 7.41832 27.2092 7.67383C27.7263 7.92943 28.3521 8.58009 28.6515 9.1377C28.9509 9.67209 29.1965 10.4853 29.1965 10.9268C29.1961 11.371 28.5698 16.4582 27.8351 22.1953C27.073 27.9571 26.3385 33.022 26.2023 33.4639C26.0662 33.9053 25.6851 34.5794 25.3312 34.9512C24.9773 35.3229 24.2967 35.7643 23.8068 35.9502C23.3441 36.1128 22.1461 36.252 21.1662 36.252C20.186 36.2519 17.1101 35.9962 14.2795 35.6709C11.476 35.3456 7.28457 34.8118 4.97087 34.5098C2.65717 34.1845 0.723802 33.9051 0.723802 33.8818C0.69718 33.8307 0.779265 32.8106 0.887865 31.6055C1.02396 30.3973 1.6495 23.9605 2.27556 17.3154C2.9007 10.6801 3.47191 5.20331 3.55486 5.11816C3.6093 5.04846 7.25728 4.04922 11.6125 2.86426C16.2659 1.60993 20.0213 0.726779 20.676 0.703125ZM7.76384 26.5518C7.60342 26.5518 7.44295 26.7087 7.37419 26.8848C7.32834 27.0805 7.21344 27.6282 7.1447 28.1172L6.98454 28.9971C15.6216 29.838 18.3957 30.1316 18.7638 30.1709C19.3596 30.2687 19.3832 30.2298 19.5207 29.2324C19.5893 28.6854 19.6122 28.1966 19.5666 28.1562C19.5207 28.1367 16.9304 27.7653 13.7677 27.335C10.6288 26.9047 7.92526 26.5519 7.76384 26.5518ZM8.72673 14.208C8.65799 14.208 8.29065 14.7559 7.924 15.4209V15.4404C7.55732 16.1055 7.30492 16.7128 7.35076 16.791C7.4197 16.8889 7.92444 17.1033 8.49724 17.2793C9.0697 17.4748 9.55056 17.7487 9.52849 17.8662C9.52849 18.0618 9.23063 18.0812 8.38298 17.9639C7.26003 17.8269 7.2365 17.8469 7.2365 18.3164C7.2365 18.5903 7.35146 19.099 7.51189 19.4707C7.80973 20.1161 7.81007 20.1164 9.02458 19.999C9.73483 19.9208 10.2615 19.9598 10.3302 20.0771C10.399 20.175 10.0552 20.4099 9.59685 20.5664L8.72673 20.8594C9.43709 21.5048 10.0101 21.8181 10.4455 21.9746C11.2012 22.2483 11.2702 22.2288 11.7052 21.7598C12.0718 21.3686 12.2555 21.3095 12.6906 21.4658C12.9656 21.5636 13.1955 21.701 13.1955 21.7793C13.1949 21.8773 12.9653 22.1122 12.6906 22.3467C12.3925 22.5619 11.7967 22.8749 11.3615 23.0117C10.9267 23.1485 10.4919 23.3435 10.3996 23.4414C10.285 23.5197 10.5594 23.9115 10.9718 24.3027L11.7052 25.0068C12.6907 23.9114 13.0809 23.6376 13.1955 23.6963C13.3479 23.7617 13.34 24.0354 13.172 24.5176C13.0576 24.9279 13.0121 25.3185 13.1261 25.3975C13.2178 25.4757 13.7225 25.5546 14.2267 25.5938L15.1427 25.6523C15.0511 24.2047 15.1205 23.7939 15.258 23.7939C15.3727 23.7943 15.648 24.146 15.8312 24.5762C16.0146 25.0065 16.3354 25.3584 16.5187 25.3584C16.7024 25.358 17.1607 25.1438 17.55 24.8701L18.2375 24.3809C16.6103 23.0506 16.175 22.5414 16.175 22.2676C16.1751 22.0135 16.3126 21.8379 16.5187 21.8379C16.7021 21.8382 17.023 22.0526 17.2062 22.3262C17.4353 22.6391 17.7557 22.8153 18.1222 22.8154C18.4431 22.8154 19.0623 22.6595 19.5207 22.4639L20.3459 22.1309C19.1542 21.3288 18.9017 21.0158 18.9933 20.918C19.0852 20.8398 19.4979 20.8787 19.9103 21.0352C20.3228 21.1721 20.8501 21.3095 21.0793 21.3291C21.3543 21.3289 21.7439 21.0942 22.0646 20.6641C22.3625 20.2924 22.591 19.8615 22.591 19.7246C22.5904 19.5878 22.1552 19.4512 21.5597 19.3926C20.8496 19.3339 20.5285 19.1966 20.5285 19.001C20.5286 18.7859 20.8727 18.6681 21.7433 18.5898L22.9347 18.4727C22.7056 16.9079 22.5453 16.2621 22.3849 16.0078C22.1349 15.5811 22.1099 15.5971 20.2961 16.7822L20.2541 16.8105C18.5588 17.9056 18.3515 18.1011 18.4201 18.6094C18.443 18.9419 18.3519 19.3142 18.1916 19.4512C18.0312 19.5881 17.6868 19.7051 17.4347 19.7051C17.1827 19.705 16.8388 19.5686 16.7013 19.3926C16.5409 19.2361 16.45 18.8248 16.5187 18.4531C16.5647 18.1206 16.8161 17.5922 17.091 17.2793C17.3431 16.9859 17.7329 16.751 17.9621 16.751C18.1683 16.751 18.4667 16.8494 18.6271 16.9863C18.8331 17.1815 18.9247 17.025 19.0392 16.2627C19.1309 15.715 19.1534 15.2646 19.1076 15.2646C19.0585 15.2454 18.3033 15.2842 17.3888 15.3623C15.7852 15.4796 15.7388 15.4996 15.8761 15.9688C15.9449 16.2817 15.8303 16.6343 15.5324 16.9473L15.0744 17.4365C14.5014 16.4584 14.502 16.2624 14.7541 15.8125C14.9144 15.5191 15.0055 15.2646 14.9826 15.2646C14.9352 15.2447 14.317 15.0889 13.6076 14.9131C12.8742 14.737 12.1181 14.5996 11.9347 14.5996C11.6827 14.5996 11.591 14.8147 11.591 15.4404C11.591 16.2229 11.6369 16.2628 12.2326 16.1846C12.7367 16.1455 12.8975 16.2231 13.1496 16.6729C13.31 16.9858 13.4239 17.632 13.3781 18.1211C13.3094 18.9619 13.2638 19.0009 12.5763 19.0596C11.9809 19.0791 11.7747 19.0011 11.5685 18.6494C11.3852 18.3364 11.3852 18.1011 11.5685 17.7686C11.7975 17.3775 11.6591 17.162 10.3302 15.7734C9.50695 14.9145 8.79798 14.2109 8.72673 14.208ZM14.5705 11.8613C14.3643 11.8613 14.0663 11.9588 13.883 12.0957C13.6997 12.2326 13.5847 12.526 13.6076 12.7803C13.6305 13.0346 13.7914 13.4459 13.9289 13.7197C14.1123 14.0129 14.5019 14.2284 14.9142 14.3066C15.3038 14.3653 15.9452 14.4043 16.3576 14.4043C16.9763 14.4043 17.1604 14.2869 17.5041 13.7197C17.8249 13.1525 17.8474 12.9565 17.6183 12.5459C17.4579 12.272 17.1371 12.0567 16.9308 12.0566C16.7246 12.0566 16.3808 12.2331 16.1974 12.4482C15.9913 12.6829 15.7847 12.8584 15.716 12.8584C15.6471 12.858 15.4412 12.6233 15.258 12.3496C15.0747 12.0759 14.7538 11.8615 14.5705 11.8613ZM15.9455 10.8828C15.7164 10.8828 15.464 10.9803 15.3722 11.0781C15.3035 11.1759 15.3955 11.4889 15.5558 11.7432L15.8312 12.2324C16.4497 11.4893 16.5875 11.1759 16.5187 11.0781C16.45 10.9803 16.1975 10.8829 15.9455 10.8828Z" fill="white"/>
</svg>
