<svg width="42" height="42" viewBox="0 0 42 42" fill="none" xmlns="http://www.w3.org/2000/svg">
<path fill-rule="evenodd" clip-rule="evenodd" d="M21.7039 0.289246C22.4999 0.3053 23.497 0.377546 23.9151 0.449792C24.3332 0.514011 25.0729 0.682585 25.5634 0.811023C26.0539 0.93946 26.8821 1.22042 27.4128 1.42913C27.9435 1.64587 28.7073 1.99907 29.1013 2.21581C29.4953 2.43255 30.1145 2.8018 30.4683 3.04262C30.8221 3.28344 31.3608 3.69284 31.6744 3.94169C31.988 4.19856 32.5991 4.77653 33.0413 5.23409C33.4835 5.69165 34.0142 6.28567 34.2152 6.55057C34.4243 6.81547 34.7861 7.33725 35.0354 7.71454C35.2766 8.09182 35.7189 8.88653 36.0083 9.48055C36.2897 10.0746 36.6516 10.9415 36.8044 11.4071C36.9571 11.8727 37.1581 12.5952 37.2466 13.0126C37.335 13.43 37.4315 13.9357 37.4557 14.1364C37.5039 14.4655 37.5441 14.5217 37.914 14.7385C38.1391 14.8749 38.509 15.18 38.7261 15.4208C38.9512 15.6616 39.3452 16.1914 39.6106 16.5847C39.8759 16.9781 40.286 17.7006 40.5192 18.1902C40.7523 18.6799 41.0579 19.4184 41.1946 19.8358C41.3313 20.2532 41.5162 20.9436 41.6047 21.361C41.6931 21.7784 41.8057 22.5972 41.8539 23.1672C41.9263 23.9538 41.9263 24.4756 41.8539 25.2944C41.7976 25.8884 41.669 26.7955 41.5564 27.3013C41.4439 27.807 41.2187 28.5696 41.0659 28.987C40.9051 29.4044 40.6076 30.0948 40.3986 30.5122C40.1895 30.9296 39.7955 31.6039 39.5302 31.9972C39.2648 32.3906 38.8145 32.9445 38.517 33.2254C38.2276 33.4984 37.7692 33.8355 37.5039 33.9639C37.2386 34.0924 36.8124 34.261 36.5551 34.3252C36.3058 34.3974 36.0726 34.4777 36.0485 34.5098C36.0244 34.5419 35.8636 34.7667 35.6947 35.0075C35.5259 35.2483 35.2043 35.6577 34.9791 35.9146C34.754 36.1715 34.3198 36.5889 34.0062 36.8458C33.6926 37.1026 33.1699 37.4879 32.8403 37.7047C32.5106 37.9134 31.9075 38.2425 31.5136 38.4271C31.1196 38.6118 30.4281 38.8767 29.9858 39.0051C29.5436 39.1416 28.9084 39.3102 28.5787 39.3744C28.249 39.4386 27.7585 39.5108 27.4932 39.5429C27.2278 39.567 26.8901 39.6072 26.7534 39.6232C26.5283 39.6553 26.4801 39.7035 26.4399 39.9202C26.4077 40.0647 26.3192 40.3216 26.2388 40.4821C26.1504 40.6507 25.9655 40.8755 25.8288 40.9798C25.684 41.0842 25.4348 41.2046 25.282 41.2608C25.089 41.325 23.8909 41.3491 21.342 41.3491C18.7931 41.3491 17.5951 41.325 17.4021 41.2608C17.2493 41.2046 17 41.0842 16.8553 40.9798C16.7186 40.8755 16.5176 40.6347 16.4211 40.442C16.2442 40.1129 16.2362 40.0326 16.2362 35.7701L16.4613 35.3928C16.606 35.1359 16.8071 34.9352 17.4423 34.566H25.2418L25.6277 34.7908C25.869 34.9272 26.078 35.1359 26.1986 35.3527C26.3112 35.5373 26.4157 35.8183 26.4961 36.2517L27.0751 36.1875C27.3967 36.1554 27.9837 36.0511 28.3777 35.9547C28.8842 35.8343 29.4471 35.6096 30.2672 35.2082C31.1839 34.7506 31.5618 34.5098 32.5991 33.5626L32.1166 33.0809C31.7789 32.7438 31.5377 32.3986 31.3125 31.9411C31.1356 31.5718 30.9507 31.0741 30.9105 30.8333C30.8623 30.5925 30.8301 30.159 30.8301 29.87C30.8301 29.573 30.9266 28.9388 31.0633 28.3849C31.1919 27.8551 31.3527 27.1166 31.409 26.7393C31.4734 26.3219 31.5136 25.3586 31.5136 24.2509C31.5136 23.1752 31.4653 22.1397 31.401 21.6821C31.3447 21.2647 31.1919 20.5021 31.0633 19.9964C30.9185 19.4264 30.8301 18.8565 30.8301 18.5113C30.8301 18.2063 30.8864 17.7327 30.9507 17.4678C31.0231 17.2029 31.1919 16.7533 31.3286 16.4643C31.4734 16.1754 31.7869 15.7258 32.0362 15.4689C32.2774 15.204 32.6955 14.8508 32.9609 14.6823C33.2262 14.5137 33.58 14.3291 33.7408 14.2729C34.0062 14.1846 34.0383 14.1525 33.9981 13.9759C33.974 13.8635 33.8695 13.4461 33.7569 13.0527C33.6524 12.6594 33.4594 12.0573 33.3227 11.7282C33.186 11.3991 32.8885 10.781 32.6714 10.3636C32.4463 9.94614 32.0603 9.31198 31.8111 8.95877C31.5618 8.6136 30.9587 7.92325 30.4683 7.43358C29.9778 6.95194 29.238 6.30975 28.8199 6.01274C28.4018 5.71573 27.662 5.27422 27.1716 5.02538C26.6811 4.78456 25.9092 4.45544 25.4428 4.30292C24.9764 4.14237 24.2045 3.94169 23.7141 3.84536C22.9984 3.70087 22.5481 3.66876 21.342 3.66876C20.0877 3.66073 19.7098 3.69284 18.9298 3.85339C18.4233 3.95774 17.6433 4.16645 17.2011 4.31897C16.7588 4.47149 16.0673 4.75245 15.6733 4.9451C15.2793 5.13776 14.62 5.50702 14.226 5.77192C13.832 6.03682 13.1968 6.51846 12.8189 6.84758C12.441 7.1767 11.9344 7.68243 11.6851 7.96338C11.4359 8.24434 11.0338 8.75006 10.8006 9.07918C10.5594 9.40831 10.1574 10.0826 9.90812 10.5642C9.65886 11.0539 9.36136 11.7041 9.24074 12.0092C9.12817 12.3142 8.94324 12.9243 8.83871 13.3578C8.72614 13.7832 8.63769 14.1444 8.63769 14.1605C8.63769 14.1685 8.77438 14.2167 8.9352 14.2729C9.10405 14.3291 9.45784 14.5137 9.72319 14.6823C9.98853 14.8508 10.4067 15.204 10.6479 15.4689C10.8971 15.7258 11.2107 16.1754 11.3555 16.4643C11.4921 16.7533 11.661 17.2029 11.7334 17.4678C11.7977 17.7327 11.854 18.2223 11.854 18.5514C11.854 18.9287 11.7816 19.4345 11.653 19.9161C11.5484 20.3335 11.3957 21.0399 11.3153 21.4814C11.2107 22.0995 11.1786 22.7417 11.1786 24.2509C11.1786 25.7921 11.2027 26.3861 11.3153 26.9802C11.3957 27.3976 11.5484 28.104 11.653 28.5455C11.7736 29.0191 11.854 29.581 11.854 29.9101C11.854 30.2232 11.7977 30.7048 11.7253 30.9938C11.661 31.2828 11.468 31.7645 11.3072 32.0775C11.1303 32.4147 10.8006 32.8481 10.4871 33.1612C10.1252 33.5305 9.77947 33.7713 9.36136 33.98C9.03169 34.1405 8.55728 34.3171 8.31606 34.3653C8.07484 34.4215 7.56827 34.4616 7.19036 34.4616C6.81245 34.4536 6.30588 34.3894 6.06466 34.3171C5.82344 34.2449 5.40532 34.0763 5.13997 33.9399C4.87463 33.8114 4.42435 33.4823 4.14292 33.2094C3.86954 32.9364 3.41926 32.3906 3.15392 31.9972C2.88857 31.6039 2.49458 30.9296 2.28552 30.5122C2.07646 30.0948 1.77895 29.4044 1.61814 28.987C1.46536 28.5696 1.24022 27.807 1.12765 27.3013C1.01508 26.7955 0.886431 25.9446 0.830146 25.4148C0.781902 24.8609 0.76582 24.0743 0.797983 23.5685C0.830146 23.0789 0.918594 22.2761 1.00704 21.7865C1.08745 21.2888 1.28847 20.47 1.44928 19.9803C1.6101 19.4826 1.93173 18.6799 2.16491 18.1902C2.39809 17.7006 2.80816 16.9781 3.07351 16.5847C3.33885 16.1914 3.71677 15.6857 3.90974 15.4609C4.11076 15.2442 4.46455 14.9391 4.70578 14.7866C4.947 14.6341 5.14802 14.5057 5.15606 14.5057C5.15606 14.4976 5.22038 14.1525 5.29275 13.735C5.36512 13.3176 5.50985 12.6433 5.62242 12.25C5.72695 11.8566 5.94405 11.1823 6.10486 10.7649C6.26568 10.3475 6.57927 9.6411 6.80441 9.19959C7.02955 8.75809 7.43158 8.05168 7.70497 7.63426C7.98639 7.21684 8.42863 6.59874 8.69398 6.26961C8.95932 5.94049 9.57846 5.29028 10.0529 4.82469C10.5353 4.35911 11.2188 3.76508 11.5726 3.50018C11.9263 3.23528 12.5937 2.79378 13.0601 2.52085C13.5265 2.23989 14.2501 1.8626 14.6682 1.67798C15.0864 1.49335 15.7779 1.22844 16.196 1.09198C16.6141 0.947488 17.3217 0.754831 17.7639 0.650476C18.2062 0.554148 18.9459 0.417683 19.4123 0.361492C19.951 0.297273 20.7792 0.265164 21.7039 0.289246Z" fill="white"/>
</svg>
