<svg width="17" height="16" viewBox="0 0 17 16" fill="none" xmlns="http://www.w3.org/2000/svg">
<path d="M2.63507 0.202062C2.75733 0.137697 2.93106 0.0668954 3.02115 0.0411493C3.11123 0.0186215 3.30427 -0.00390625 3.45548 -0.00390625C3.6067 -0.00390625 3.80295 0.012185 3.88982 0.0379311C3.97991 0.0604588 4.11503 0.108733 4.19547 0.144133C4.2759 0.176316 4.43355 0.269645 4.54937 0.346883C4.66519 0.424122 4.87432 0.604344 5.0191 0.749165C5.16066 0.890768 5.36335 1.11605 5.46952 1.24799C5.57248 1.37994 5.76551 1.65028 5.89742 1.84337C6.02933 2.03647 6.21272 2.35829 6.30602 2.55139C6.40254 2.74448 6.51515 3.03413 6.56341 3.19504C6.62776 3.4171 6.64706 3.56192 6.65028 3.80651C6.65028 4.01569 6.63097 4.20235 6.59558 4.33752C6.56663 4.45338 6.5055 4.62716 6.46045 4.72371C6.41541 4.82026 6.31568 4.99404 6.23846 5.1099C6.16446 5.22576 6.00038 5.42851 5.87812 5.56046C5.75586 5.6924 5.63039 5.83723 5.60143 5.88228C5.56604 5.93055 5.54674 6.0271 5.54674 6.12365C5.54674 6.21054 5.57569 6.37146 5.61108 6.47766C5.64969 6.58386 5.73012 6.76408 5.79447 6.87994C5.86203 6.9958 6.03899 7.25648 6.19342 7.45923C6.34785 7.66198 6.62132 7.99667 6.80471 8.19942C6.98488 8.40217 7.37417 8.80767 7.66695 9.09732C7.95972 9.39018 8.38119 9.78602 8.60319 9.97912C8.82518 10.1722 9.15656 10.4458 9.34317 10.5842C9.52977 10.7258 9.83863 10.9188 10.0349 11.0154C10.2601 11.1313 10.4467 11.2021 10.5497 11.2149C10.6365 11.2246 10.7491 11.2246 10.7974 11.2117C10.8489 11.2021 11.0516 11.0411 11.2607 10.848C11.4634 10.655 11.7497 10.4168 11.8945 10.3106C12.0393 10.2076 12.2741 10.066 12.4157 9.99843C12.5573 9.93085 12.7889 9.84395 12.9305 9.80533C13.1074 9.76028 13.2908 9.74097 13.5257 9.73775C13.7605 9.73775 13.9471 9.75706 14.137 9.80212C14.2882 9.84073 14.5198 9.91475 14.6517 9.96946C14.7836 10.0242 15.0089 10.1368 15.1504 10.2205C15.292 10.3042 15.5236 10.4586 15.6652 10.5616C15.8067 10.6678 16.0352 10.8609 16.1767 10.9961C16.3151 11.1313 16.492 11.3276 16.566 11.4338C16.6433 11.54 16.7494 11.7202 16.8041 11.8361C16.8588 11.9519 16.9264 12.1547 16.9553 12.2866C16.9939 12.4572 17.0036 12.6052 16.9907 12.7854C16.9811 12.927 16.936 13.1588 16.891 13.3004C16.8459 13.442 16.7398 13.6769 16.6561 13.8217C16.5725 13.9698 16.4116 14.2015 16.3022 14.3366C16.1928 14.475 15.9612 14.726 15.7874 14.8934C15.6137 15.064 15.3338 15.315 15.1665 15.4566C14.9992 15.595 14.774 15.7494 14.6678 15.7977C14.5616 15.8492 14.3815 15.9136 14.2657 15.9458C14.0984 15.9908 13.9311 16.0037 13.4292 16.0037C12.9015 16.0037 12.7439 15.9908 12.4318 15.9265C12.2291 15.8878 11.8945 15.8042 11.6918 15.7462C11.4891 15.6851 11.1545 15.5724 10.9518 15.4952C10.7491 15.418 10.4242 15.2796 10.2279 15.1927C10.0317 15.1026 9.6649 14.9159 9.40751 14.7743C9.15013 14.6327 8.76727 14.4074 8.55493 14.2755C8.34258 14.1403 7.98224 13.8957 7.7506 13.7348C7.51895 13.5707 7.12966 13.2746 6.88192 13.0751C6.63419 12.8788 6.28029 12.5795 6.09368 12.4153C5.90708 12.2512 5.521 11.8843 5.23144 11.5979C4.94188 11.3115 4.5365 10.8899 4.33059 10.6614C4.12147 10.4329 3.85121 10.1207 3.72574 9.96946C3.60026 9.81821 3.33966 9.48673 3.14341 9.22927C2.95037 8.97181 2.65437 8.55343 2.48386 8.29597C2.31334 8.03851 2.0463 7.60405 1.89187 7.3305C1.73422 7.05694 1.50258 6.60639 1.3771 6.33284C1.24841 6.05929 1.07789 5.64735 0.99424 5.41563C0.91059 5.18392 0.791549 4.80095 0.733638 4.5628C0.672509 4.32465 0.59851 3.95455 0.572772 3.74214C0.537381 3.47825 0.52773 3.23688 0.540599 2.98585C0.550251 2.7831 0.579207 2.52886 0.608162 2.42266C0.633901 2.31646 0.711116 2.12014 0.775463 1.98819C0.875199 1.78544 0.971719 1.66637 1.39319 1.23512C1.66988 0.955134 2.01091 0.633308 2.15247 0.520669C2.29403 0.40803 2.50959 0.263209 2.63507 0.202062Z" fill="white"/>
</svg>
