<svg width="35" height="34" viewBox="0 0 35 34" fill="none" xmlns="http://www.w3.org/2000/svg">
<path d="M0.652344 16.3028C0.652344 8.68004 0.652346 4.86473 3.01987 2.50034C5.3874 0.135945 9.19957 0.132812 16.8223 0.132812H18.1698C25.7926 0.132812 29.6079 0.132811 31.9723 2.50034C34.3367 4.86786 34.3398 8.68004 34.3398 16.3028V17.6503C34.3398 25.2731 34.3398 29.0884 31.9723 31.4528C29.6048 33.8172 25.7926 33.8203 18.1698 33.8203H16.8223C9.19957 33.8203 5.38426 33.8203 3.01987 31.4528C0.655479 29.0853 0.652344 25.2731 0.652344 17.6503V16.3028Z" fill="white" fill-opacity="0.02"/>
<path fill-rule="evenodd" clip-rule="evenodd" d="M9.53074 15.9102C14.4881 13.7502 17.7939 12.3261 19.4483 11.6378C24.1721 9.67246 25.1526 9.33072 25.7928 9.32063C26.0278 9.31505 26.2586 9.38422 26.4518 9.51817C26.5869 9.63603 26.6733 9.80003 26.694 9.97814C26.7284 10.1999 26.7381 10.4248 26.7228 10.6486C26.4662 13.3378 25.3588 19.864 24.795 22.8747C24.5571 24.1494 24.0884 24.5777 23.6328 24.6195C22.6451 24.7103 21.8953 23.9663 20.9393 23.339C19.4425 22.3585 18.5961 21.7529 17.1441 20.7897C15.4643 19.6838 16.5529 19.0753 17.5104 18.0818C17.7613 17.8208 22.1116 13.8627 22.1966 13.5037C22.2075 13.4509 22.2061 13.3964 22.1923 13.3444C22.1785 13.2923 22.1529 13.2442 22.1173 13.2037C22.0657 13.1704 22.0068 13.1499 21.9456 13.1438C21.8844 13.1378 21.8227 13.1465 21.7655 13.1691C21.6155 13.2037 19.2243 14.7841 14.5919 17.9102C13.9123 18.3774 13.2975 18.6047 12.7477 18.5922C12.1392 18.5792 10.9712 18.249 10.1032 17.9664C9.03905 17.6204 8.19264 17.4372 8.26617 16.8489C8.30366 16.5413 8.72518 16.2284 9.53074 15.9102Z" fill="white"/>
</svg>
