<svg width="35" height="34" viewBox="0 0 35 34" fill="none" xmlns="http://www.w3.org/2000/svg">
<path d="M0.78125 16.3028C0.78125 8.68004 0.781252 4.86473 3.14878 2.50034C5.5163 0.135945 9.32847 0.132812 16.9513 0.132812H18.2988C25.9215 0.132812 29.7368 0.132811 32.1012 2.50034C34.4656 4.86786 34.4688 8.68004 34.4688 16.3028V17.6503C34.4688 25.2731 34.4688 29.0884 32.1012 31.4528C29.7337 33.8172 25.9215 33.8203 18.2988 33.8203H16.9513C9.32847 33.8203 5.51317 33.8203 3.14878 31.4528C0.784385 29.0853 0.78125 25.2731 0.78125 17.6503V16.3028Z" fill="white" fill-opacity="0.02"/>
<path d="M18.5631 23.5365C11.3775 23.5365 7.28173 18.6103 7.10938 10.4141H10.7132C10.8307 16.4308 13.4849 18.9785 15.5861 19.5019V10.4141H18.9752V15.6035C21.0497 15.3794 23.2308 13.0151 23.9657 10.4141H27.3548C26.7907 13.6199 24.4263 15.9843 22.7451 16.9557C24.4263 17.7391 27.1182 19.8058 28.1429 23.5365H24.4059C23.6053 21.0295 21.6091 19.1023 18.9689 18.8359V23.5365H18.5631Z" fill="white"/>
</svg>
