<svg width="35" height="34" viewBox="0 0 35 34" fill="none" xmlns="http://www.w3.org/2000/svg">
<path d="M0.585938 16.3028C0.585938 8.68004 0.585939 4.86473 2.95347 2.50034C5.32099 0.135945 9.13316 0.132812 16.7559 0.132812H18.1034C25.7262 0.132812 29.5415 0.132811 31.9059 2.50034C34.2703 4.86786 34.2734 8.68004 34.2734 16.3028V17.6503C34.2734 25.2731 34.2734 29.0884 31.9059 31.4528C29.5384 33.8172 25.7262 33.8203 18.1034 33.8203H16.7559C9.13316 33.8203 5.31786 33.8203 2.95347 31.4528C0.589073 29.0853 0.585938 25.2731 0.585938 17.6503V16.3028Z" fill="white" fill-opacity="0.02"/>
<path fill-rule="evenodd" clip-rule="evenodd" d="M17.4296 10C17.4296 10 23.6653 10.0005 25.2248 10.4271C26.078 10.6568 26.751 11.3291 26.9809 12.1823C27.4076 13.7413 27.3914 16.9914 27.3914 16.9914C27.3914 17.0342 27.3884 20.2346 26.9809 21.7831C26.7511 22.6364 26.078 23.3095 25.2248 23.5393C23.665 23.9494 17.4296 23.9489 17.4296 23.9489C17.3741 23.9489 11.2029 23.9475 9.63452 23.5227C8.78134 23.2929 8.10907 22.6198 7.87931 21.7666C7.47136 20.2327 7.46876 17.0113 7.46875 16.9749C7.46875 16.9749 7.46904 13.7413 7.87931 12.1823C8.10914 11.3293 8.79789 10.6404 9.63452 10.4106C11.1865 10.0021 17.374 10 17.4296 10ZM15.4448 19.8461L20.6314 16.8592L15.4448 13.8723V19.8461Z" fill="white"/>
</svg>
